<?xml version="1.0" encoding="UTF-8" standalone="no"?>
<svg
   xmlns:dc="http://purl.org/dc/elements/1.1/"
   xmlns:cc="http://creativecommons.org/ns#"
   xmlns:rdf="http://www.w3.org/1999/02/22-rdf-syntax-ns#"
   xmlns:svg="http://www.w3.org/2000/svg"
   xmlns="http://www.w3.org/2000/svg"
   xmlns:sodipodi="http://sodipodi.sourceforge.net/DTD/sodipodi-0.dtd"
   xmlns:inkscape="http://www.inkscape.org/namespaces/inkscape"
   version="1.1"
   viewBox="0 0 200.00034 201.72466"
   fill="none"
   stroke="none"
   stroke-linecap="square"
   stroke-miterlimit="10"
   id="svg55"
   sodipodi:docname="icon.svg"
   width="200.00034"
   height="201.72466"
   inkscape:version="1.0.1 (0767f8302a, 2020-10-17)">
  <metadata
     id="metadata61">
    <rdf:RDF>
      <cc:Work
         rdf:about="">
        <dc:format>image/svg+xml</dc:format>
        <dc:type
           rdf:resource="http://purl.org/dc/dcmitype/StillImage" />
        <dc:title></dc:title>
      </cc:Work>
    </rdf:RDF>
  </metadata>
  <defs
     id="defs59" />
  <sodipodi:namedview
     pagecolor="#ffffff"
     bordercolor="#666666"
     borderopacity="1"
     objecttolerance="10"
     gridtolerance="10"
     guidetolerance="10"
     inkscape:pageopacity="0"
     inkscape:pageshadow="2"
     inkscape:window-width="1920"
     inkscape:window-height="1043"
     id="namedview57"
     showgrid="false"
     inkscape:zoom="1.6675287"
     inkscape:cx="163.52963"
     inkscape:cy="115.5733"
     inkscape:window-x="1920"
     inkscape:window-y="0"
     inkscape:window-maximized="1"
     inkscape:current-layer="svg55" />
  <clipPath
     id="p.0">
    <path
       d="M 0,0 H 780.2441 V 309.51443 H 0 Z"
       clip-rule="nonzero"
       id="path2" />
  </clipPath>
  <path
     fill="#000000"
     fill-opacity="0"
     d="M 3.3639216e-4,0 H 200.00034 V 79.337846 H 3.3639216e-4 Z"
     fill-rule="evenodd"
     id="path5"
     style="stroke-width:0.25633" />
  <g
     id="g96"
     transform="scale(2.5815034)">
    <path
       fill="#d9d2e9"
       d="M 0,36.51122 28.941074,78.142315 77.474235,0 26.492148,45.416167 Z"
       fill-rule="evenodd"
       id="path7"
       style="stroke-width:0.25633" />
    <path
       fill="#8e7cc3"
       d="m 30.701239,35.46889 c 1.297701,0 2.278189,0.769011 2.941456,2.307024 0.668081,1.533213 1.002115,3.688841 1.002115,6.466887 0,5.608955 -1.432278,8.413433 -4.296835,8.413433 -1.475536,0 -2.729982,-0.663266 -3.763338,-1.989808 V 38.5257 c 0.557533,-0.970873 1.196769,-1.723061 1.917715,-2.25656 0.725753,-0.5335 1.458716,-0.80025 2.198887,-0.80025 z m 0.886763,-3.229838 c -1.033356,0 -2.001827,0.281168 -2.905414,0.843508 -0.898777,0.557531 -1.68701,1.384215 -2.364701,2.480052 -0.02884,-0.206671 -0.08892,-0.567143 -0.180236,-1.081421 -0.08651,-0.519078 -0.21148,-0.970873 -0.374893,-1.355375 -0.163413,-0.384503 -0.451792,-0.576758 -0.865135,-0.576758 -0.471018,0 -1.016533,0.0745 -1.636546,0.223494 -0.620013,0.144188 -0.93002,0.394115 -0.93002,0.749786 0,0.08651 0.0721,0.567143 0.216284,1.441889 0.148995,0.869941 0.223493,2.263769 0.223493,4.181487 v 24.764488 c 0,0.648851 0.562338,0.973275 1.687012,0.973275 h 0.439777 c 1.124677,0 1.687014,-0.324424 1.687014,-0.973275 V 53.679978 c 0.648851,0.735365 1.333749,1.2953 2.054696,1.679805 0.725752,0.384506 1.590886,0.576758 2.595405,0.576758 2.244544,0 4.030085,-1.033358 5.356627,-3.100065 1.331345,-2.066713 1.997018,-4.945689 1.997018,-8.636934 0,-2.335863 -0.281166,-4.409784 -0.843508,-6.22176 -0.562336,-1.816785 -1.3746,-3.227439 -2.436793,-4.231953 -1.062196,-1.004516 -2.302221,-1.506777 -3.72008,-1.506777 z"
       fill-rule="evenodd"
       id="path9"
       style="stroke-width:0.25633" />
    <path
       fill="#8e7cc3"
       d="m 42.879843,32.41208 c -1.148705,0 -1.723063,0.252331 -1.723063,0.756994 0,0.177831 0.05768,0.442179 0.173027,0.793041 l 6.250601,19.761124 -3.013552,9.696719 c -0.12016,0.384506 -0.180236,0.636834 -0.180236,0.756994 0,0.471017 0.473421,0.706528 1.420261,0.706528 h 0.930021 c 0.97568,0 1.566854,-0.310011 1.773528,-0.930022 l 8.680186,-29.991343 c 0.115351,-0.379701 0.173028,-0.644049 0.173028,-0.793041 0,-0.504663 -0.559935,-0.756994 -1.679803,-0.756994 h -0.5335 c -0.975681,0 -1.521198,0.237913 -1.636549,0.713736 l -3.237046,12.003748 -0.793042,3.539844 h -0.266749 c -0.41334,-1.802364 -0.694511,-2.982313 -0.843508,-3.539844 L 45.100353,33.125816 C 44.980196,32.649993 44.446696,32.41208 43.499857,32.41208 Z"
       fill-rule="evenodd"
       id="path11"
       style="stroke-width:0.25633" />
    <path
       stroke="#ffffff"
       stroke-width="4.10128"
       stroke-linejoin="round"
       stroke-linecap="butt"
       d="m 30.701239,35.46889 c 1.297701,0 2.278189,0.769011 2.941456,2.307024 0.668081,1.533213 1.002115,3.688841 1.002115,6.466887 0,5.608955 -1.432278,8.413433 -4.296835,8.413433 -1.475536,0 -2.729982,-0.663266 -3.763338,-1.989808 V 38.5257 c 0.557533,-0.970873 1.196769,-1.723061 1.917715,-2.25656 0.725753,-0.5335 1.458716,-0.80025 2.198887,-0.80025 z m 0.886763,-3.229838 c -1.033356,0 -2.001827,0.281168 -2.905414,0.843508 -0.898777,0.557531 -1.68701,1.384215 -2.364701,2.480052 -0.02884,-0.206671 -0.08892,-0.567143 -0.180236,-1.081421 -0.08651,-0.519078 -0.21148,-0.970873 -0.374893,-1.355375 -0.163413,-0.384503 -0.451792,-0.576758 -0.865135,-0.576758 -0.471018,0 -1.016533,0.0745 -1.636546,0.223494 -0.620013,0.144188 -0.93002,0.394115 -0.93002,0.749786 0,0.08651 0.0721,0.567143 0.216284,1.441889 0.148995,0.869941 0.223493,2.263769 0.223493,4.181487 v 24.764488 c 0,0.648851 0.562338,0.973275 1.687012,0.973275 h 0.439777 c 1.124677,0 1.687014,-0.324424 1.687014,-0.973275 V 53.679978 c 0.648851,0.735365 1.333749,1.2953 2.054696,1.679805 0.725752,0.384506 1.590886,0.576758 2.595405,0.576758 2.244544,0 4.030085,-1.033358 5.356627,-3.100065 1.331345,-2.066713 1.997018,-4.945689 1.997018,-8.636934 0,-2.335863 -0.281166,-4.409784 -0.843508,-6.22176 -0.562336,-1.816785 -1.3746,-3.227439 -2.436793,-4.231953 -1.062196,-1.004516 -2.302221,-1.506777 -3.72008,-1.506777 z"
       fill-rule="evenodd"
       id="path13" />
    <path
       stroke="#ffffff"
       stroke-width="4.10128"
       stroke-linejoin="round"
       stroke-linecap="butt"
       d="m 42.879843,32.41208 c -1.148705,0 -1.723063,0.252331 -1.723063,0.756994 0,0.177831 0.05768,0.442179 0.173027,0.793041 l 6.250601,19.761124 -3.013552,9.696719 c -0.12016,0.384506 -0.180236,0.636834 -0.180236,0.756994 0,0.471017 0.473421,0.706528 1.420261,0.706528 h 0.930021 c 0.97568,0 1.566854,-0.310011 1.773528,-0.930022 l 8.680186,-29.991343 c 0.115351,-0.379701 0.173028,-0.644049 0.173028,-0.793041 0,-0.504663 -0.559935,-0.756994 -1.679803,-0.756994 h -0.5335 c -0.975681,0 -1.521198,0.237913 -1.636549,0.713736 l -3.237046,12.003748 -0.793042,3.539844 h -0.266749 c -0.41334,-1.802364 -0.694511,-2.982313 -0.843508,-3.539844 L 45.100353,33.125816 C 44.980196,32.649993 44.446696,32.41208 43.499857,32.41208 Z"
       fill-rule="evenodd"
       id="path15" />
    <path
       fill="#8e7cc3"
       d="m 30.701239,35.46889 c 1.297701,0 2.278189,0.769011 2.941456,2.307024 0.668081,1.533213 1.002115,3.688841 1.002115,6.466887 0,5.608955 -1.432278,8.413433 -4.296835,8.413433 -1.475536,0 -2.729982,-0.663266 -3.763338,-1.989808 V 38.5257 c 0.557533,-0.970873 1.196769,-1.723061 1.917715,-2.25656 0.725753,-0.5335 1.458716,-0.80025 2.198887,-0.80025 z m 0.886763,-3.229838 c -1.033356,0 -2.001827,0.281168 -2.905414,0.843508 -0.898777,0.557531 -1.68701,1.384215 -2.364701,2.480052 -0.02884,-0.206671 -0.08892,-0.567143 -0.180236,-1.081421 -0.08651,-0.519078 -0.21148,-0.970873 -0.374893,-1.355375 -0.163413,-0.384503 -0.451792,-0.576758 -0.865135,-0.576758 -0.471018,0 -1.016533,0.0745 -1.636546,0.223494 -0.620013,0.144188 -0.93002,0.394115 -0.93002,0.749786 0,0.08651 0.0721,0.567143 0.216284,1.441889 0.148995,0.869941 0.223493,2.263769 0.223493,4.181487 v 24.764488 c 0,0.648851 0.562338,0.973275 1.687012,0.973275 h 0.439777 c 1.124677,0 1.687014,-0.324424 1.687014,-0.973275 V 53.679978 c 0.648851,0.735365 1.333749,1.2953 2.054696,1.679805 0.725752,0.384506 1.590886,0.576758 2.595405,0.576758 2.244544,0 4.030085,-1.033358 5.356627,-3.100065 1.331345,-2.066713 1.997018,-4.945689 1.997018,-8.636934 0,-2.335863 -0.281166,-4.409784 -0.843508,-6.22176 -0.562336,-1.816785 -1.3746,-3.227439 -2.436793,-4.231953 -1.062196,-1.004516 -2.302221,-1.506777 -3.72008,-1.506777 z"
       fill-rule="evenodd"
       id="path17"
       style="stroke-width:0.25633" />
    <path
       fill="#8e7cc3"
       d="m 42.879843,32.41208 c -1.148705,0 -1.723063,0.252331 -1.723063,0.756994 0,0.177831 0.05768,0.442179 0.173027,0.793041 l 6.250601,19.761124 -3.013552,9.696719 c -0.12016,0.384506 -0.180236,0.636834 -0.180236,0.756994 0,0.471017 0.473421,0.706528 1.420261,0.706528 h 0.930021 c 0.97568,0 1.566854,-0.310011 1.773528,-0.930022 l 8.680186,-29.991343 c 0.115351,-0.379701 0.173028,-0.644049 0.173028,-0.793041 0,-0.504663 -0.559935,-0.756994 -1.679803,-0.756994 h -0.5335 c -0.975681,0 -1.521198,0.237913 -1.636549,0.713736 l -3.237046,12.003748 -0.793042,3.539844 h -0.266749 c -0.41334,-1.802364 -0.694511,-2.982313 -0.843508,-3.539844 L 45.100353,33.125816 C 44.980196,32.649993 44.446696,32.41208 43.499857,32.41208 Z"
       fill-rule="evenodd"
       id="path19"
       style="stroke-width:0.25633" />
    <path
       stroke="#000000"
       stroke-width="0.51266"
       stroke-linejoin="round"
       stroke-linecap="butt"
       d="m 30.701239,35.46889 c 1.297701,0 2.278189,0.769011 2.941456,2.307024 0.668081,1.533213 1.002115,3.688841 1.002115,6.466887 0,5.608955 -1.432278,8.413433 -4.296835,8.413433 -1.475536,0 -2.729982,-0.663266 -3.763338,-1.989808 V 38.5257 c 0.557533,-0.970873 1.196769,-1.723061 1.917715,-2.25656 0.725753,-0.5335 1.458716,-0.80025 2.198887,-0.80025 z m 0.886763,-3.229838 c -1.033356,0 -2.001827,0.281168 -2.905414,0.843508 -0.898777,0.557531 -1.68701,1.384215 -2.364701,2.480052 -0.02884,-0.206671 -0.08892,-0.567143 -0.180236,-1.081421 -0.08651,-0.519078 -0.21148,-0.970873 -0.374893,-1.355375 -0.163413,-0.384503 -0.451792,-0.576758 -0.865135,-0.576758 -0.471018,0 -1.016533,0.0745 -1.636546,0.223494 -0.620013,0.144188 -0.93002,0.394115 -0.93002,0.749786 0,0.08651 0.0721,0.567143 0.216284,1.441889 0.148995,0.869941 0.223493,2.263769 0.223493,4.181487 v 24.764488 c 0,0.648851 0.562338,0.973275 1.687012,0.973275 h 0.439777 c 1.124677,0 1.687014,-0.324424 1.687014,-0.973275 V 53.679978 c 0.648851,0.735365 1.333749,1.2953 2.054696,1.679805 0.725752,0.384506 1.590886,0.576758 2.595405,0.576758 2.244544,0 4.030085,-1.033358 5.356627,-3.100065 1.331345,-2.066713 1.997018,-4.945689 1.997018,-8.636934 0,-2.335863 -0.281166,-4.409784 -0.843508,-6.22176 -0.562336,-1.816785 -1.3746,-3.227439 -2.436793,-4.231953 -1.062196,-1.004516 -2.302221,-1.506777 -3.72008,-1.506777 z"
       fill-rule="evenodd"
       id="path21" />
    <path
       stroke="#000000"
       stroke-width="0.51266"
       stroke-linejoin="round"
       stroke-linecap="butt"
       d="m 42.879843,32.41208 c -1.148705,0 -1.723063,0.252331 -1.723063,0.756994 0,0.177831 0.05768,0.442179 0.173027,0.793041 l 6.250601,19.761124 -3.013552,9.696719 c -0.12016,0.384506 -0.180236,0.636834 -0.180236,0.756994 0,0.471017 0.473421,0.706528 1.420261,0.706528 h 0.930021 c 0.97568,0 1.566854,-0.310011 1.773528,-0.930022 l 8.680186,-29.991343 c 0.115351,-0.379701 0.173028,-0.644049 0.173028,-0.793041 0,-0.504663 -0.559935,-0.756994 -1.679803,-0.756994 h -0.5335 c -0.975681,0 -1.521198,0.237913 -1.636549,0.713736 l -3.237046,12.003748 -0.793042,3.539844 h -0.266749 c -0.41334,-1.802364 -0.694511,-2.982313 -0.843508,-3.539844 L 45.100353,33.125816 C 44.980196,32.649993 44.446696,32.41208 43.499857,32.41208 Z"
       fill-rule="evenodd"
       id="path23" />
  </g>
</svg>
