<svg version="1.1" viewBox="0.0 0.0 780.2440944881889 309.51443569553805" fill="none" stroke="none" stroke-linecap="square" stroke-miterlimit="10" xmlns:xlink="http://www.w3.org/1999/xlink" xmlns="http://www.w3.org/2000/svg"><clipPath id="p.0"><path d="m0 0l780.2441 0l0 309.51443l-780.2441 0l0 -309.51443z" clip-rule="nonzero"/></clipPath><g clip-path="url(#p.0)"><path fill="#000000" fill-opacity="0.0" d="m0 0l780.2441 0l0 309.51443l-780.2441 0z" fill-rule="evenodd"/><path fill="#d9d2e9" d="m-0.001312336 142.43832l112.90551 162.41208l189.33856 -304.8504l-198.89236 177.17848z" fill-rule="evenodd"/><path fill="#8e7cc3" d="m119.77099 138.37196c5.062622 0 8.887718 3.0000763 11.475273 9.000214c2.6063232 5.9813995 3.9094696 14.390976 3.9094696 25.228745c0 21.881775 -5.587631 32.822662 -16.762901 32.822662c-5.7563934 0 -10.650261 -2.587555 -14.68161 -7.76268l0 -47.363647c2.1750565 -3.7875977 4.6688614 -6.722046 7.48143 -8.803345c2.8313217 -2.0812988 5.6907654 -3.1219482 8.578339 -3.1219482zm3.4594574 -12.600311c-4.031349 0 -7.8095703 1.0969009 -11.334656 3.2907104c-3.5063324 2.1750488 -6.5814056 5.400131 -9.22522 9.675232c-0.11250305 -0.8062744 -0.34688568 -2.212555 -0.70314026 -4.218857c-0.33750916 -2.0250397 -0.82502747 -3.7875977 -1.4625397 -5.287628c-0.6375122 -1.5000305 -1.7625427 -2.2500534 -3.375084 -2.2500534c-1.8375473 0 -3.9657211 0.29062653 -6.384529 0.87189484c-2.418808 0.56251526 -3.628212 1.5375366 -3.628212 2.9250793c0 0.33750916 0.28125763 2.212555 0.8437729 5.6251373c0.5812607 3.3938293 0.87189484 8.831451 0.87189484 16.312897l0 96.611725c0 2.531311 2.1938019 3.7969666 6.5814056 3.7969666l1.7156677 0c4.3876114 0 6.5814133 -1.2656555 6.5814133 -3.7969666l0 -39.910355c2.531311 2.8688202 5.203247 5.053253 8.015816 6.5532837c2.8313217 1.5000458 6.2064056 2.250061 10.125252 2.250061c8.756462 0 15.722252 -4.031357 20.897377 -12.09404c5.193878 -8.062698 7.7908173 -19.29422 7.7908173 -33.69458c0 -9.112717 -1.0968933 -17.203537 -3.2907104 -24.27246c-2.1938019 -7.087677 -5.362625 -12.590942 -9.50647 -16.50978c-4.14386 -3.9188385 -8.981476 -5.8782654 -14.512856 -5.8782654z" fill-rule="evenodd"/><path fill="#8e7cc3" d="m167.28241 126.44667c-4.4813538 0 -6.722046 0.9843979 -6.722046 2.9532013c0 0.6937561 0.2250061 1.7250366 0.6750183 3.0938263l24.384964 77.0925l-11.756531 37.82904c-0.46876526 1.5000458 -0.70314026 2.484436 -0.70314026 2.9532013c0 1.8375397 1.8469238 2.7563171 5.540756 2.7563171l3.6282196 0c3.8063354 0 6.1126404 -1.2094116 6.918915 -3.6282196l33.863327 -117.00284c0.4500122 -1.4812927 0.6750183 -2.5125732 0.6750183 -3.0938263c0 -1.9688034 -2.184433 -2.9532013 -6.5532837 -2.9532013l-2.0812988 0c-3.8063507 0 -5.9345245 0.92814636 -6.3845367 2.784439l-12.628433 46.82927l-3.0938263 13.809708l-1.0406494 0c-1.6125336 -7.031418 -2.7094421 -11.634659 -3.2907104 -13.809708l-12.769058 -46.82927c-0.46876526 -1.8562927 -2.550064 -2.784439 -6.2438965 -2.784439z" fill-rule="evenodd"/><path stroke="#ffffff" stroke-width="16.0" stroke-linejoin="round" stroke-linecap="butt" d="m119.77099 138.37196c5.062622 0 8.887718 3.0000763 11.475273 9.000214c2.6063232 5.9813995 3.9094696 14.390976 3.9094696 25.228745c0 21.881775 -5.587631 32.822662 -16.762901 32.822662c-5.7563934 0 -10.650261 -2.587555 -14.68161 -7.76268l0 -47.363647c2.1750565 -3.7875977 4.6688614 -6.722046 7.48143 -8.803345c2.8313217 -2.0812988 5.6907654 -3.1219482 8.578339 -3.1219482zm3.4594574 -12.600311c-4.031349 0 -7.8095703 1.0969009 -11.334656 3.2907104c-3.5063324 2.1750488 -6.5814056 5.400131 -9.22522 9.675232c-0.11250305 -0.8062744 -0.34688568 -2.212555 -0.70314026 -4.218857c-0.33750916 -2.0250397 -0.82502747 -3.7875977 -1.4625397 -5.287628c-0.6375122 -1.5000305 -1.7625427 -2.2500534 -3.375084 -2.2500534c-1.8375473 0 -3.9657211 0.29062653 -6.384529 0.87189484c-2.418808 0.56251526 -3.628212 1.5375366 -3.628212 2.9250793c0 0.33750916 0.28125763 2.212555 0.8437729 5.6251373c0.5812607 3.3938293 0.87189484 8.831451 0.87189484 16.312897l0 96.611725c0 2.531311 2.1938019 3.7969666 6.5814056 3.7969666l1.7156677 0c4.3876114 0 6.5814133 -1.2656555 6.5814133 -3.7969666l0 -39.910355c2.531311 2.8688202 5.203247 5.053253 8.015816 6.5532837c2.8313217 1.5000458 6.2064056 2.250061 10.125252 2.250061c8.756462 0 15.722252 -4.031357 20.897377 -12.09404c5.193878 -8.062698 7.7908173 -19.29422 7.7908173 -33.69458c0 -9.112717 -1.0968933 -17.203537 -3.2907104 -24.27246c-2.1938019 -7.087677 -5.362625 -12.590942 -9.50647 -16.50978c-4.14386 -3.9188385 -8.981476 -5.8782654 -14.512856 -5.8782654z" fill-rule="evenodd"/><path stroke="#ffffff" stroke-width="16.0" stroke-linejoin="round" stroke-linecap="butt" d="m167.28241 126.44667c-4.4813538 0 -6.722046 0.9843979 -6.722046 2.9532013c0 0.6937561 0.2250061 1.7250366 0.6750183 3.0938263l24.384964 77.0925l-11.756531 37.82904c-0.46876526 1.5000458 -0.70314026 2.484436 -0.70314026 2.9532013c0 1.8375397 1.8469238 2.7563171 5.540756 2.7563171l3.6282196 0c3.8063354 0 6.1126404 -1.2094116 6.918915 -3.6282196l33.863327 -117.00284c0.4500122 -1.4812927 0.6750183 -2.5125732 0.6750183 -3.0938263c0 -1.9688034 -2.184433 -2.9532013 -6.5532837 -2.9532013l-2.0812988 0c-3.8063507 0 -5.9345245 0.92814636 -6.3845367 2.784439l-12.628433 46.82927l-3.0938263 13.809708l-1.0406494 0c-1.6125336 -7.031418 -2.7094421 -11.634659 -3.2907104 -13.809708l-12.769058 -46.82927c-0.46876526 -1.8562927 -2.550064 -2.784439 -6.2438965 -2.784439z" fill-rule="evenodd"/><path fill="#8e7cc3" d="m119.77099 138.37196c5.062622 0 8.887718 3.0000763 11.475273 9.000214c2.6063232 5.9813995 3.9094696 14.390976 3.9094696 25.228745c0 21.881775 -5.587631 32.822662 -16.762901 32.822662c-5.7563934 0 -10.650261 -2.587555 -14.68161 -7.76268l0 -47.363647c2.1750565 -3.7875977 4.6688614 -6.722046 7.48143 -8.803345c2.8313217 -2.0812988 5.6907654 -3.1219482 8.578339 -3.1219482zm3.4594574 -12.600311c-4.031349 0 -7.8095703 1.0969009 -11.334656 3.2907104c-3.5063324 2.1750488 -6.5814056 5.400131 -9.22522 9.675232c-0.11250305 -0.8062744 -0.34688568 -2.212555 -0.70314026 -4.218857c-0.33750916 -2.0250397 -0.82502747 -3.7875977 -1.4625397 -5.287628c-0.6375122 -1.5000305 -1.7625427 -2.2500534 -3.375084 -2.2500534c-1.8375473 0 -3.9657211 0.29062653 -6.384529 0.87189484c-2.418808 0.56251526 -3.628212 1.5375366 -3.628212 2.9250793c0 0.33750916 0.28125763 2.212555 0.8437729 5.6251373c0.5812607 3.3938293 0.87189484 8.831451 0.87189484 16.312897l0 96.611725c0 2.531311 2.1938019 3.7969666 6.5814056 3.7969666l1.7156677 0c4.3876114 0 6.5814133 -1.2656555 6.5814133 -3.7969666l0 -39.910355c2.531311 2.8688202 5.203247 5.053253 8.015816 6.5532837c2.8313217 1.5000458 6.2064056 2.250061 10.125252 2.250061c8.756462 0 15.722252 -4.031357 20.897377 -12.09404c5.193878 -8.062698 7.7908173 -19.29422 7.7908173 -33.69458c0 -9.112717 -1.0968933 -17.203537 -3.2907104 -24.27246c-2.1938019 -7.087677 -5.362625 -12.590942 -9.50647 -16.50978c-4.14386 -3.9188385 -8.981476 -5.8782654 -14.512856 -5.8782654z" fill-rule="evenodd"/><path fill="#8e7cc3" d="m167.28241 126.44667c-4.4813538 0 -6.722046 0.9843979 -6.722046 2.9532013c0 0.6937561 0.2250061 1.7250366 0.6750183 3.0938263l24.384964 77.0925l-11.756531 37.82904c-0.46876526 1.5000458 -0.70314026 2.484436 -0.70314026 2.9532013c0 1.8375397 1.8469238 2.7563171 5.540756 2.7563171l3.6282196 0c3.8063354 0 6.1126404 -1.2094116 6.918915 -3.6282196l33.863327 -117.00284c0.4500122 -1.4812927 0.6750183 -2.5125732 0.6750183 -3.0938263c0 -1.9688034 -2.184433 -2.9532013 -6.5532837 -2.9532013l-2.0812988 0c-3.8063507 0 -5.9345245 0.92814636 -6.3845367 2.784439l-12.628433 46.82927l-3.0938263 13.809708l-1.0406494 0c-1.6125336 -7.031418 -2.7094421 -11.634659 -3.2907104 -13.809708l-12.769058 -46.82927c-0.46876526 -1.8562927 -2.550064 -2.784439 -6.2438965 -2.784439z" fill-rule="evenodd"/><path stroke="#000000" stroke-width="2.0" stroke-linejoin="round" stroke-linecap="butt" d="m119.77099 138.37196c5.062622 0 8.887718 3.0000763 11.475273 9.000214c2.6063232 5.9813995 3.9094696 14.390976 3.9094696 25.228745c0 21.881775 -5.587631 32.822662 -16.762901 32.822662c-5.7563934 0 -10.650261 -2.587555 -14.68161 -7.76268l0 -47.363647c2.1750565 -3.7875977 4.6688614 -6.722046 7.48143 -8.803345c2.8313217 -2.0812988 5.6907654 -3.1219482 8.578339 -3.1219482zm3.4594574 -12.600311c-4.031349 0 -7.8095703 1.0969009 -11.334656 3.2907104c-3.5063324 2.1750488 -6.5814056 5.400131 -9.22522 9.675232c-0.11250305 -0.8062744 -0.34688568 -2.212555 -0.70314026 -4.218857c-0.33750916 -2.0250397 -0.82502747 -3.7875977 -1.4625397 -5.287628c-0.6375122 -1.5000305 -1.7625427 -2.2500534 -3.375084 -2.2500534c-1.8375473 0 -3.9657211 0.29062653 -6.384529 0.87189484c-2.418808 0.56251526 -3.628212 1.5375366 -3.628212 2.9250793c0 0.33750916 0.28125763 2.212555 0.8437729 5.6251373c0.5812607 3.3938293 0.87189484 8.831451 0.87189484 16.312897l0 96.611725c0 2.531311 2.1938019 3.7969666 6.5814056 3.7969666l1.7156677 0c4.3876114 0 6.5814133 -1.2656555 6.5814133 -3.7969666l0 -39.910355c2.531311 2.8688202 5.203247 5.053253 8.015816 6.5532837c2.8313217 1.5000458 6.2064056 2.250061 10.125252 2.250061c8.756462 0 15.722252 -4.031357 20.897377 -12.09404c5.193878 -8.062698 7.7908173 -19.29422 7.7908173 -33.69458c0 -9.112717 -1.0968933 -17.203537 -3.2907104 -24.27246c-2.1938019 -7.087677 -5.362625 -12.590942 -9.50647 -16.50978c-4.14386 -3.9188385 -8.981476 -5.8782654 -14.512856 -5.8782654z" fill-rule="evenodd"/><path stroke="#000000" stroke-width="2.0" stroke-linejoin="round" stroke-linecap="butt" d="m167.28241 126.44667c-4.4813538 0 -6.722046 0.9843979 -6.722046 2.9532013c0 0.6937561 0.2250061 1.7250366 0.6750183 3.0938263l24.384964 77.0925l-11.756531 37.82904c-0.46876526 1.5000458 -0.70314026 2.484436 -0.70314026 2.9532013c0 1.8375397 1.8469238 2.7563171 5.540756 2.7563171l3.6282196 0c3.8063354 0 6.1126404 -1.2094116 6.918915 -3.6282196l33.863327 -117.00284c0.4500122 -1.4812927 0.6750183 -2.5125732 0.6750183 -3.0938263c0 -1.9688034 -2.184433 -2.9532013 -6.5532837 -2.9532013l-2.0812988 0c-3.8063507 0 -5.9345245 0.92814636 -6.3845367 2.784439l-12.628433 46.82927l-3.0938263 13.809708l-1.0406494 0c-1.6125336 -7.031418 -2.7094421 -11.634659 -3.2907104 -13.809708l-12.769058 -46.82927c-0.46876526 -1.8562927 -2.550064 -2.784439 -6.2438965 -2.784439z" fill-rule="evenodd"/><path fill="#f3f3f3" d="m277.86154 124.8593c-4.3769226 0 -8.443878 1.183464 -12.200897 3.5503998c-3.7382202 2.366928 -6.7626038 5.5134583 -9.073181 9.43956c-0.112701416 -0.93925476 -0.34750366 -2.3857117 -0.70443726 -4.3393707c-0.33813477 -1.953659 -0.8265381 -3.6819 -1.4652405 -5.184723c-0.6387024 -1.5028152 -1.7657928 -2.2542267 -3.3813019 -2.2542267c-1.7282257 0 -3.8321533 0.3193512 -6.311783 0.95804596c-2.4796295 0.6199112 -3.7194366 1.6249313 -3.7194366 3.0150223c0 0.35691833 0.2817688 2.2072754 0.84532166 5.5510254c0.5823517 3.3437805 0.87350464 8.763306 0.87350464 16.25859l0 61.11766c0 2.5359955 2.1414948 3.8040009 6.4244843 3.8040009l1.8879089 0c4.395706 0 6.5935516 -1.2680054 6.5935516 -3.8040009l0 -63.371872c0.67626953 -2.5360107 2.460846 -5.184723 5.3537292 -7.9461517c2.8929138 -2.7802124 6.236664 -4.1703033 10.0312195 -4.1703033c4.0388184 0 7.035034 1.4464569 8.988678 4.3393707c1.9724121 2.892929 2.9586487 7.044449 2.9586487 12.45459l0 58.694366c0 2.5359955 2.1978455 3.8040009 6.5935364 3.8040009l1.8879089 0c4.2829895 0 6.424469 -1.2680054 6.424469 -3.8040009l0 -60.075073l0 -2.7614288c1.1459045 -3.2310486 3.127716 -6.142761 5.9454956 -8.735123c2.8365173 -2.611145 6.048767 -3.9167023 9.636719 -3.9167023c3.9260864 0 6.865967 1.4464569 8.81958 4.3393707c1.9724426 2.892929 2.9586487 7.044449 2.9586487 12.45459l0 58.694366c0 2.5359955 2.1884766 3.8040009 6.565399 3.8040009l1.718811 0c4.3957214 0 6.593567 -1.2680054 6.593567 -3.8040009l0 -60.075073c0 -9.355026 -2.0757446 -16.361908 -6.227234 -21.020645c-4.15152 -4.677513 -9.401947 -7.016266 -15.751282 -7.016266c-4.3957214 0 -8.55658 1.2116394 -12.482666 3.6349335c-3.9260864 2.423294 -7.2698364 5.6543427 -10.0312195 9.693161c-1.728241 -4.621155 -4.3581543 -7.993103 -7.88974 -10.115829c-3.5127869 -2.14151 -7.4670715 -3.212265 -11.862762 -3.212265z" fill-rule="evenodd"/><path fill="#f3f3f3" d="m395.6066 137.31389c10.275421 0 15.413147 9.120209 15.413147 27.360641l-33.41861 0c0.9204407 -18.240433 6.9222717 -27.360641 18.005463 -27.360641zm0.50720215 -12.45459c-11.195892 0 -19.677368 3.9824524 -25.444366 11.947388c-5.7669983 7.96492 -8.650513 19.62114 -8.650513 34.968643c0 15.46022 2.968048 26.947372 8.904114 34.461456c5.9548645 7.4953003 15.0468445 11.24295 27.27591 11.24295c4.6211243 0 8.95108 -0.60113525 12.989868 -1.8033905c4.038788 -1.2210388 7.241638 -2.7238617 9.608551 -4.508438c2.3669128 -1.8033905 3.5503845 -3.3907318 3.5503845 -4.7620544c0 -1.1646881 -0.7232361 -2.9023132 -2.1696777 -5.2128906c-1.4464417 -2.3105774 -2.7426147 -3.465866 -3.8885193 -3.465866c-0.35690308 0 -1.3994751 0.63868713 -3.1276855 1.9160919c-1.728241 1.2773895 -3.9824524 2.4890442 -6.7626343 3.6349335c-2.7614136 1.1458893 -6.217865 1.7188416 -10.369354 1.7188416c-6.8189697 0 -11.787628 -2.1884766 -14.905945 -6.5654297c-3.1183167 -4.376953 -4.959259 -11.477768 -5.5227966 -21.302414l43.111694 0c1.0331726 0 2.235443 -0.9204712 3.6067505 -2.7614288c1.3900757 -1.8409576 2.0851135 -3.2874146 2.0851135 -4.339386c0 -14.765167 -2.5359802 -25.97992 -7.6079407 -33.644287c-5.0719604 -7.6831512 -12.632935 -11.524719 -22.682953 -11.524719z" fill-rule="evenodd"/><path fill="#f3f3f3" d="m455.83267 103.89501c-3.4564514 0 -5.297394 1.2773972 -5.5227966 3.8321762l-2.085144 18.174683l-5.7200623 0c-1.145874 0 -2.0100098 0.4038849 -2.5923157 1.211647c-0.58236694 0.8077698 -0.87350464 2.1321182 -0.87350464 3.9730759l0 2.0851593c0 1.8409424 0.2911377 3.1652985 0.87350464 3.9730682c0.5823364 0.8077545 1.4464417 1.2116394 2.5923157 1.2116394l5.7200623 0l0 58.15898c0 7.8522186 1.9630432 13.309311 5.889099 16.371307c3.9260864 3.0619812 8.42511 4.592987 13.49707 4.592987c2.8929138 0 5.522827 -0.37571716 7.88974 -1.127121c2.3669128 -0.7514038 3.550354 -2.047577 3.550354 -3.8885345c0 -1.3901062 -0.34750366 -3.1183472 -1.0425415 -5.1847076c-0.69506836 -2.0851593 -1.5591736 -3.1277466 -2.5923462 -3.1277466c-0.3569336 0 -1.0519714 0.14089966 -2.085144 0.42266846c-1.0331726 0.28178406 -2.301178 0.42266846 -3.8039856 0.42266846c-2.1978455 0 -3.8791199 -0.77020264 -5.0437927 -2.3105774c-1.145874 -1.5591736 -1.718811 -4.4239197 -1.718811 -8.594238l0 -55.735687l11.440094 0c1.258606 0 2.150879 -0.4038849 2.67688 -1.2116394c0.52597046 -0.8077698 0.78897095 -2.1321259 0.78897095 -3.9730682l0 -2.0851593c0 -1.8409576 -0.2630005 -3.165306 -0.78897095 -3.9730759c-0.526001 -0.80776215 -1.4182739 -1.211647 -2.67688 -1.211647l-11.440094 0l0 -18.174683c0 -2.554779 -1.728241 -3.8321762 -5.1846924 -3.8321762z" fill-rule="evenodd"/><path fill="#f3f3f3" d="m539.46124 171.60626l0 22.316818c-4.7338257 6.574829 -10.848389 9.862244 -18.343628 9.862244c-8.659912 0 -12.989838 -4.4427032 -12.989838 -13.32811c0 -5.410141 1.5028076 -9.467743 4.5083923 -12.172806c3.0056152 -2.7238464 6.6123657 -4.4896545 10.82019 -5.2974243c4.2078857 -0.8077698 9.542847 -1.2680054 16.004883 -1.380722zm-14.877747 -46.746964c-4.7338257 0 -9.326782 0.5165863 -13.778839 1.5497742c-4.4332886 1.0331879 -8.011841 2.357544 -10.735657 3.9730682c-2.7050476 1.6155243 -4.0575867 3.1746979 -4.0575867 4.6775208c0 1.1646729 0.7232361 2.8741302 2.1696777 5.128357c1.4464417 2.235443 2.7426147 3.3531647 3.8884888 3.3531647c0.33813477 0 1.6061401 -0.5447693 3.8039856 -1.6343231c2.1978455 -1.0895386 4.827759 -2.1227264 7.88974 -3.0995483c3.0619507 -0.9956207 6.6123047 -1.4934235 10.651123 -1.4934235c5.1846924 0 8.988647 1.2773895 11.411926 3.8321686c2.4232788 2.5360107 3.6348877 5.757675 3.6348877 9.664993l0 8.143387c-8.659912 0.112716675 -16.333618 0.9486542 -23.021057 2.5078278c-6.6875 1.5591583 -12.285461 4.649338 -16.793854 9.270493c-4.508423 4.621155 -6.7626343 11.261719 -6.7626343 19.921707c0 8.528473 2.2823792 15.131485 6.847168 19.80899c4.5647583 4.6775208 10.7074585 7.016281 18.428131 7.016281c8.885315 0 16.389954 -3.6912994 22.513916 -11.073883c0.6950073 3.2310486 1.4464111 5.7388763 2.2542114 7.523468c0.80773926 1.7846069 2.0757446 2.6768951 3.803955 2.6768951c1.8409424 0 3.8603516 -0.30995178 6.0581665 -0.9298706c2.197876 -0.63868713 3.296814 -1.6530914 3.296814 -3.0431976c0 -0.35691833 -0.34753418 -2.1790771 -1.0426025 -5.4664917c-0.69506836 -3.2874146 -1.0425415 -8.735123 -1.0425415 -16.343124l0 -39.81523c0 -8.209137 -2.6017456 -14.614883 -7.805237 -19.21727c-5.1846313 -4.621155 -12.388733 -6.931732 -21.612183 -6.931732z" fill-rule="evenodd"/><path fill="#f3f3f3" d="m606.64404 136.44037c4.7338257 0 8.453247 1.3337555 11.158325 4.001251c2.705017 2.6487122 4.057556 7.4389343 4.057556 14.370682c0 6.3493958 -1.3900757 10.735733 -4.170288 13.159027c-2.7614136 2.423294 -6.4432983 3.6349335 -11.045593 3.6349335c-4.7338257 0 -8.434509 -1.2116394 -11.10199 -3.6349335c-2.6486816 -2.423294 -3.9730225 -6.8096313 -3.9730225 -13.159027c0 -6.9317474 1.3243408 -11.72197 3.9730225 -14.370682c2.6674805 -2.6674957 6.368164 -4.001251 11.10199 -4.001251zm-10.397522 77.40442c2.5359497 0.8077698 6.001831 1.4370728 10.397522 1.8879242c4.376892 0.5823364 7.833374 1.2492065 10.369324 2.0006256c2.5360107 0.7514038 4.696289 2.019394 6.480835 3.8040009c1.8034058 1.7845917 2.7050781 4.301819 2.7050781 7.551651c0 8.303055 -6.5184326 12.45459 -19.555237 12.45459c-12.360596 0 -18.540894 -4.3299866 -18.540894 -12.989975c0 -3.3437653 0.7514038 -6.2836456 2.2542114 -8.819656c1.5028076 -2.5359955 3.4658813 -4.4990387 5.88916 -5.88916zm10.566589 -88.98549c-9.242249 0 -16.343018 2.7144547 -21.302246 8.143387c-4.9592896 5.4101257 -7.438904 12.623657 -7.438904 21.640549c0 12.45459 4.329956 20.813995 12.989868 25.078247c-5.428894 3.8134003 -8.143311 9.129608 -8.143311 15.948624c0 2.6487122 0.48840332 5.072006 1.46521 7.269882c0.97680664 2.1978607 2.338745 3.9824677 4.0857544 5.353775l0 0.36631775c-4.28302 2.1790924 -7.6643066 5.2035065 -10.143921 9.073257c-2.4796143 3.869751 -3.7194214 8.227905 -3.7194214 13.074493c0 14.896652 10.275391 22.345001 30.826233 22.345001c11.308594 0 19.846436 -2.197876 25.613464 -6.5936127c5.766968 -4.376953 8.650513 -10.726364 8.650513 -19.048187c0 -6.800247 -2.132141 -12.013153 -6.3963013 -15.638687c-4.264221 -3.644333 -10.040649 -5.9924927 -17.329224 -7.044449l-3.6349487 -0.50720215c-5.766968 -0.8077545 -9.9748535 -1.8127594 -12.623535 -3.0150146c-2.6486816 -1.2210541 -3.9730225 -3.5598145 -3.9730225 -7.016281c0 -6.706314 4.1514893 -10.228546 12.454468 -10.566681c8.54718 -0.35690308 15.178345 -3.212265 19.893372 -8.56604c4.7338257 -5.372574 7.100769 -12.276123 7.100769 -20.710693c0 -6.105194 -1.5497437 -11.637436 -4.649292 -16.596725l0.33813477 -0.3663025c1.7282104 0.24420166 5.0719604 0.3663025 10.031189 0.3663025c1.2774048 0 2.1696777 -0.3757019 2.67688 -1.1271057c0.526001 -0.75141907 0.78900146 -1.9912415 0.78900146 -3.7194672l0 -2.0851593c0 -3.343773 -1.1552734 -5.0156555 -3.4658813 -5.0156555l-25.951538 0c-2.5547485 -0.6950531 -5.269226 -1.042572 -8.143311 -1.042572z" fill-rule="evenodd"/><path fill="#f3f3f3" d="m687.14575 137.31389c10.275452 0 15.413147 9.120209 15.413147 27.360641l-33.41858 0c0.92041016 -18.240433 6.922241 -27.360641 18.005432 -27.360641zm0.50720215 -12.45459c-11.195862 0 -19.677307 3.9824524 -25.444336 11.947388c-5.767029 7.96492 -8.650513 19.62114 -8.650513 34.968643c0 15.46022 2.9680176 26.947372 8.904114 34.461456c5.954834 7.4953003 15.046814 11.24295 27.275879 11.24295c4.621155 0 8.951111 -0.60113525 12.989868 -1.8033905c4.0388184 -1.2210388 7.241638 -2.7238617 9.608582 -4.508438c2.3668823 -1.8033905 3.550354 -3.3907318 3.550354 -4.7620544c0 -1.1646881 -0.72320557 -2.9023132 -2.1696777 -5.2128906c-1.4464111 -2.3105774 -2.7426147 -3.465866 -3.8884888 -3.465866c-0.3569336 0 -1.3994751 0.63868713 -3.1276855 1.9160919c-1.7282715 1.2773895 -3.982483 2.4890442 -6.7626343 3.6349335c-2.7614136 1.1458893 -6.2178955 1.7188416 -10.369385 1.7188416c-6.8189697 0 -11.787598 -2.1884766 -14.905945 -6.5654297c-3.1182861 -4.376953 -4.9592285 -11.477768 -5.522766 -21.302414l43.111694 0c1.0331421 0 2.2354126 -0.9204712 3.6067505 -2.7614288c1.3900757 -1.8409576 2.085083 -3.2874146 2.085083 -4.339386c0 -14.765167 -2.5359497 -25.97992 -7.60791 -33.644287c-5.0719604 -7.6831512 -12.632996 -11.524719 -22.682983 -11.524719z" fill-rule="evenodd"/><path fill="#f3f3f3" d="m769.88574 124.8593c-6.574768 0 -12.632996 4.3299866 -18.17456 12.98996c-0.11273193 -0.5823364 -0.37573242 -1.8221588 -0.78900146 -3.7194672c-0.3944702 -1.9160919 -0.9674072 -3.7382507 -1.718811 -5.4664917c-0.7514038 -1.728241 -1.9348755 -2.5923615 -3.550354 -2.5923615c-1.8409424 0 -3.8603516 0.3193512 -6.0582275 0.95804596c-2.197815 0.6199112 -3.296753 1.6249313 -3.296753 3.0150223c0 0.35691833 0.34753418 2.1790924 1.0425415 5.4664917c0.69506836 3.2874146 1.0426025 8.735123 1.0426025 16.343124l0 61.11766c0 2.5359955 2.3105469 3.8040009 6.9317017 3.8040009l0.6762085 0c4.621155 0 6.9317017 -1.2680054 6.9317017 -3.8040009l0 -63.371872c0.9204712 -2.0663757 2.7332153 -4.339386 5.4382935 -6.819031c2.723816 -2.4796448 5.588562 -3.7194672 8.594177 -3.7194672c2.0663452 0 3.850891 0.31933594 5.3536987 0.95803833c1.5028076 0.6199188 2.5454102 0.9298706 3.1277466 0.9298706c0.9204712 0 1.7282104 -1.0613708 2.4232788 -3.1840973c0.69506836 -2.14151 1.0425415 -4.1984863 1.0425415 -6.170929c0 -2.0663757 -0.77960205 -3.7006912 -2.338745 -4.9029465c-1.5591431 -1.2210312 -3.7851562 -1.8315506 -6.6780396 -1.8315506z" fill-rule="evenodd"/><path stroke="#000000" stroke-width="2.0" stroke-linejoin="round" stroke-linecap="butt" d="m277.86154 124.8593c-4.3769226 0 -8.443878 1.183464 -12.200897 3.5503998c-3.7382202 2.366928 -6.7626038 5.5134583 -9.073181 9.43956c-0.112701416 -0.93925476 -0.34750366 -2.3857117 -0.70443726 -4.3393707c-0.33813477 -1.953659 -0.8265381 -3.6819 -1.4652405 -5.184723c-0.6387024 -1.5028152 -1.7657928 -2.2542267 -3.3813019 -2.2542267c-1.7282257 0 -3.8321533 0.3193512 -6.311783 0.95804596c-2.4796295 0.6199112 -3.7194366 1.6249313 -3.7194366 3.0150223c0 0.35691833 0.2817688 2.2072754 0.84532166 5.5510254c0.5823517 3.3437805 0.87350464 8.763306 0.87350464 16.25859l0 61.11766c0 2.5359955 2.1414948 3.8040009 6.4244843 3.8040009l1.8879089 0c4.395706 0 6.5935516 -1.2680054 6.5935516 -3.8040009l0 -63.371872c0.67626953 -2.5360107 2.460846 -5.184723 5.3537292 -7.9461517c2.8929138 -2.7802124 6.236664 -4.1703033 10.0312195 -4.1703033c4.0388184 0 7.035034 1.4464569 8.988678 4.3393707c1.9724121 2.892929 2.9586487 7.044449 2.9586487 12.45459l0 58.694366c0 2.5359955 2.1978455 3.8040009 6.5935364 3.8040009l1.8879089 0c4.2829895 0 6.424469 -1.2680054 6.424469 -3.8040009l0 -60.075073l0 -2.7614288c1.1459045 -3.2310486 3.127716 -6.142761 5.9454956 -8.735123c2.8365173 -2.611145 6.048767 -3.9167023 9.636719 -3.9167023c3.9260864 0 6.865967 1.4464569 8.81958 4.3393707c1.9724426 2.892929 2.9586487 7.044449 2.9586487 12.45459l0 58.694366c0 2.5359955 2.1884766 3.8040009 6.565399 3.8040009l1.718811 0c4.3957214 0 6.593567 -1.2680054 6.593567 -3.8040009l0 -60.075073c0 -9.355026 -2.0757446 -16.361908 -6.227234 -21.020645c-4.15152 -4.677513 -9.401947 -7.016266 -15.751282 -7.016266c-4.3957214 0 -8.55658 1.2116394 -12.482666 3.6349335c-3.9260864 2.423294 -7.2698364 5.6543427 -10.0312195 9.693161c-1.728241 -4.621155 -4.3581543 -7.993103 -7.88974 -10.115829c-3.5127869 -2.14151 -7.4670715 -3.212265 -11.862762 -3.212265z" fill-rule="evenodd"/><path stroke="#000000" stroke-width="2.0" stroke-linejoin="round" stroke-linecap="butt" d="m395.6066 137.31389c10.275421 0 15.413147 9.120209 15.413147 27.360641l-33.41861 0c0.9204407 -18.240433 6.9222717 -27.360641 18.005463 -27.360641zm0.50720215 -12.45459c-11.195892 0 -19.677368 3.9824524 -25.444366 11.947388c-5.7669983 7.96492 -8.650513 19.62114 -8.650513 34.968643c0 15.46022 2.968048 26.947372 8.904114 34.461456c5.9548645 7.4953003 15.0468445 11.24295 27.27591 11.24295c4.6211243 0 8.95108 -0.60113525 12.989868 -1.8033905c4.038788 -1.2210388 7.241638 -2.7238617 9.608551 -4.508438c2.3669128 -1.8033905 3.5503845 -3.3907318 3.5503845 -4.7620544c0 -1.1646881 -0.7232361 -2.9023132 -2.1696777 -5.2128906c-1.4464417 -2.3105774 -2.7426147 -3.465866 -3.8885193 -3.465866c-0.35690308 0 -1.3994751 0.63868713 -3.1276855 1.9160919c-1.728241 1.2773895 -3.9824524 2.4890442 -6.7626343 3.6349335c-2.7614136 1.1458893 -6.217865 1.7188416 -10.369354 1.7188416c-6.8189697 0 -11.787628 -2.1884766 -14.905945 -6.5654297c-3.1183167 -4.376953 -4.959259 -11.477768 -5.5227966 -21.302414l43.111694 0c1.0331726 0 2.235443 -0.9204712 3.6067505 -2.7614288c1.3900757 -1.8409576 2.0851135 -3.2874146 2.0851135 -4.339386c0 -14.765167 -2.5359802 -25.97992 -7.6079407 -33.644287c-5.0719604 -7.6831512 -12.632935 -11.524719 -22.682953 -11.524719z" fill-rule="evenodd"/><path stroke="#000000" stroke-width="2.0" stroke-linejoin="round" stroke-linecap="butt" d="m455.83267 103.89501c-3.4564514 0 -5.297394 1.2773972 -5.5227966 3.8321762l-2.085144 18.174683l-5.7200623 0c-1.145874 0 -2.0100098 0.4038849 -2.5923157 1.211647c-0.58236694 0.8077698 -0.87350464 2.1321182 -0.87350464 3.9730759l0 2.0851593c0 1.8409424 0.2911377 3.1652985 0.87350464 3.9730682c0.5823364 0.8077545 1.4464417 1.2116394 2.5923157 1.2116394l5.7200623 0l0 58.15898c0 7.8522186 1.9630432 13.309311 5.889099 16.371307c3.9260864 3.0619812 8.42511 4.592987 13.49707 4.592987c2.8929138 0 5.522827 -0.37571716 7.88974 -1.127121c2.3669128 -0.7514038 3.550354 -2.047577 3.550354 -3.8885345c0 -1.3901062 -0.34750366 -3.1183472 -1.0425415 -5.1847076c-0.69506836 -2.0851593 -1.5591736 -3.1277466 -2.5923462 -3.1277466c-0.3569336 0 -1.0519714 0.14089966 -2.085144 0.42266846c-1.0331726 0.28178406 -2.301178 0.42266846 -3.8039856 0.42266846c-2.1978455 0 -3.8791199 -0.77020264 -5.0437927 -2.3105774c-1.145874 -1.5591736 -1.718811 -4.4239197 -1.718811 -8.594238l0 -55.735687l11.440094 0c1.258606 0 2.150879 -0.4038849 2.67688 -1.2116394c0.52597046 -0.8077698 0.78897095 -2.1321259 0.78897095 -3.9730682l0 -2.0851593c0 -1.8409576 -0.2630005 -3.165306 -0.78897095 -3.9730759c-0.526001 -0.80776215 -1.4182739 -1.211647 -2.67688 -1.211647l-11.440094 0l0 -18.174683c0 -2.554779 -1.728241 -3.8321762 -5.1846924 -3.8321762z" fill-rule="evenodd"/><path stroke="#000000" stroke-width="2.0" stroke-linejoin="round" stroke-linecap="butt" d="m539.46124 171.60626l0 22.316818c-4.7338257 6.574829 -10.848389 9.862244 -18.343628 9.862244c-8.659912 0 -12.989838 -4.4427032 -12.989838 -13.32811c0 -5.410141 1.5028076 -9.467743 4.5083923 -12.172806c3.0056152 -2.7238464 6.6123657 -4.4896545 10.82019 -5.2974243c4.2078857 -0.8077698 9.542847 -1.2680054 16.004883 -1.380722zm-14.877747 -46.746964c-4.7338257 0 -9.326782 0.5165863 -13.778839 1.5497742c-4.4332886 1.0331879 -8.011841 2.357544 -10.735657 3.9730682c-2.7050476 1.6155243 -4.0575867 3.1746979 -4.0575867 4.6775208c0 1.1646729 0.7232361 2.8741302 2.1696777 5.128357c1.4464417 2.235443 2.7426147 3.3531647 3.8884888 3.3531647c0.33813477 0 1.6061401 -0.5447693 3.8039856 -1.6343231c2.1978455 -1.0895386 4.827759 -2.1227264 7.88974 -3.0995483c3.0619507 -0.9956207 6.6123047 -1.4934235 10.651123 -1.4934235c5.1846924 0 8.988647 1.2773895 11.411926 3.8321686c2.4232788 2.5360107 3.6348877 5.757675 3.6348877 9.664993l0 8.143387c-8.659912 0.112716675 -16.333618 0.9486542 -23.021057 2.5078278c-6.6875 1.5591583 -12.285461 4.649338 -16.793854 9.270493c-4.508423 4.621155 -6.7626343 11.261719 -6.7626343 19.921707c0 8.528473 2.2823792 15.131485 6.847168 19.80899c4.5647583 4.6775208 10.7074585 7.016281 18.428131 7.016281c8.885315 0 16.389954 -3.6912994 22.513916 -11.073883c0.6950073 3.2310486 1.4464111 5.7388763 2.2542114 7.523468c0.80773926 1.7846069 2.0757446 2.6768951 3.803955 2.6768951c1.8409424 0 3.8603516 -0.30995178 6.0581665 -0.9298706c2.197876 -0.63868713 3.296814 -1.6530914 3.296814 -3.0431976c0 -0.35691833 -0.34753418 -2.1790771 -1.0426025 -5.4664917c-0.69506836 -3.2874146 -1.0425415 -8.735123 -1.0425415 -16.343124l0 -39.81523c0 -8.209137 -2.6017456 -14.614883 -7.805237 -19.21727c-5.1846313 -4.621155 -12.388733 -6.931732 -21.612183 -6.931732z" fill-rule="evenodd"/><path stroke="#000000" stroke-width="2.0" stroke-linejoin="round" stroke-linecap="butt" d="m606.64404 136.44037c4.7338257 0 8.453247 1.3337555 11.158325 4.001251c2.705017 2.6487122 4.057556 7.4389343 4.057556 14.370682c0 6.3493958 -1.3900757 10.735733 -4.170288 13.159027c-2.7614136 2.423294 -6.4432983 3.6349335 -11.045593 3.6349335c-4.7338257 0 -8.434509 -1.2116394 -11.10199 -3.6349335c-2.6486816 -2.423294 -3.9730225 -6.8096313 -3.9730225 -13.159027c0 -6.9317474 1.3243408 -11.72197 3.9730225 -14.370682c2.6674805 -2.6674957 6.368164 -4.001251 11.10199 -4.001251zm-10.397522 77.40442c2.5359497 0.8077698 6.001831 1.4370728 10.397522 1.8879242c4.376892 0.5823364 7.833374 1.2492065 10.369324 2.0006256c2.5360107 0.7514038 4.696289 2.019394 6.480835 3.8040009c1.8034058 1.7845917 2.7050781 4.301819 2.7050781 7.551651c0 8.303055 -6.5184326 12.45459 -19.555237 12.45459c-12.360596 0 -18.540894 -4.3299866 -18.540894 -12.989975c0 -3.3437653 0.7514038 -6.2836456 2.2542114 -8.819656c1.5028076 -2.5359955 3.4658813 -4.4990387 5.88916 -5.88916zm10.566589 -88.98549c-9.242249 0 -16.343018 2.7144547 -21.302246 8.143387c-4.9592896 5.4101257 -7.438904 12.623657 -7.438904 21.640549c0 12.45459 4.329956 20.813995 12.989868 25.078247c-5.428894 3.8134003 -8.143311 9.129608 -8.143311 15.948624c0 2.6487122 0.48840332 5.072006 1.46521 7.269882c0.97680664 2.1978607 2.338745 3.9824677 4.0857544 5.353775l0 0.36631775c-4.28302 2.1790924 -7.6643066 5.2035065 -10.143921 9.073257c-2.4796143 3.869751 -3.7194214 8.227905 -3.7194214 13.074493c0 14.896652 10.275391 22.345001 30.826233 22.345001c11.308594 0 19.846436 -2.197876 25.613464 -6.5936127c5.766968 -4.376953 8.650513 -10.726364 8.650513 -19.048187c0 -6.800247 -2.132141 -12.013153 -6.3963013 -15.638687c-4.264221 -3.644333 -10.040649 -5.9924927 -17.329224 -7.044449l-3.6349487 -0.50720215c-5.766968 -0.8077545 -9.9748535 -1.8127594 -12.623535 -3.0150146c-2.6486816 -1.2210541 -3.9730225 -3.5598145 -3.9730225 -7.016281c0 -6.706314 4.1514893 -10.228546 12.454468 -10.566681c8.54718 -0.35690308 15.178345 -3.212265 19.893372 -8.56604c4.7338257 -5.372574 7.100769 -12.276123 7.100769 -20.710693c0 -6.105194 -1.5497437 -11.637436 -4.649292 -16.596725l0.33813477 -0.3663025c1.7282104 0.24420166 5.0719604 0.3663025 10.031189 0.3663025c1.2774048 0 2.1696777 -0.3757019 2.67688 -1.1271057c0.526001 -0.75141907 0.78900146 -1.9912415 0.78900146 -3.7194672l0 -2.0851593c0 -3.343773 -1.1552734 -5.0156555 -3.4658813 -5.0156555l-25.951538 0c-2.5547485 -0.6950531 -5.269226 -1.042572 -8.143311 -1.042572z" fill-rule="evenodd"/><path stroke="#000000" stroke-width="2.0" stroke-linejoin="round" stroke-linecap="butt" d="m687.14575 137.31389c10.275452 0 15.413147 9.120209 15.413147 27.360641l-33.41858 0c0.92041016 -18.240433 6.922241 -27.360641 18.005432 -27.360641zm0.50720215 -12.45459c-11.195862 0 -19.677307 3.9824524 -25.444336 11.947388c-5.767029 7.96492 -8.650513 19.62114 -8.650513 34.968643c0 15.46022 2.9680176 26.947372 8.904114 34.461456c5.954834 7.4953003 15.046814 11.24295 27.275879 11.24295c4.621155 0 8.951111 -0.60113525 12.989868 -1.8033905c4.0388184 -1.2210388 7.241638 -2.7238617 9.608582 -4.508438c2.3668823 -1.8033905 3.550354 -3.3907318 3.550354 -4.7620544c0 -1.1646881 -0.72320557 -2.9023132 -2.1696777 -5.2128906c-1.4464111 -2.3105774 -2.7426147 -3.465866 -3.8884888 -3.465866c-0.3569336 0 -1.3994751 0.63868713 -3.1276855 1.9160919c-1.7282715 1.2773895 -3.982483 2.4890442 -6.7626343 3.6349335c-2.7614136 1.1458893 -6.2178955 1.7188416 -10.369385 1.7188416c-6.8189697 0 -11.787598 -2.1884766 -14.905945 -6.5654297c-3.1182861 -4.376953 -4.9592285 -11.477768 -5.522766 -21.302414l43.111694 0c1.0331421 0 2.2354126 -0.9204712 3.6067505 -2.7614288c1.3900757 -1.8409576 2.085083 -3.2874146 2.085083 -4.339386c0 -14.765167 -2.5359497 -25.97992 -7.60791 -33.644287c-5.0719604 -7.6831512 -12.632996 -11.524719 -22.682983 -11.524719z" fill-rule="evenodd"/><path stroke="#000000" stroke-width="2.0" stroke-linejoin="round" stroke-linecap="butt" d="m769.88574 124.8593c-6.574768 0 -12.632996 4.3299866 -18.17456 12.98996c-0.11273193 -0.5823364 -0.37573242 -1.8221588 -0.78900146 -3.7194672c-0.3944702 -1.9160919 -0.9674072 -3.7382507 -1.718811 -5.4664917c-0.7514038 -1.728241 -1.9348755 -2.5923615 -3.550354 -2.5923615c-1.8409424 0 -3.8603516 0.3193512 -6.0582275 0.95804596c-2.197815 0.6199112 -3.296753 1.6249313 -3.296753 3.0150223c0 0.35691833 0.34753418 2.1790924 1.0425415 5.4664917c0.69506836 3.2874146 1.0426025 8.735123 1.0426025 16.343124l0 61.11766c0 2.5359955 2.3105469 3.8040009 6.9317017 3.8040009l0.6762085 0c4.621155 0 6.9317017 -1.2680054 6.9317017 -3.8040009l0 -63.371872c0.9204712 -2.0663757 2.7332153 -4.339386 5.4382935 -6.819031c2.723816 -2.4796448 5.588562 -3.7194672 8.594177 -3.7194672c2.0663452 0 3.850891 0.31933594 5.3536987 0.95803833c1.5028076 0.6199188 2.5454102 0.9298706 3.1277466 0.9298706c0.9204712 0 1.7282104 -1.0613708 2.4232788 -3.1840973c0.69506836 -2.14151 1.0425415 -4.1984863 1.0425415 -6.170929c0 -2.0663757 -0.77960205 -3.7006912 -2.338745 -4.9029465c-1.5591431 -1.2210312 -3.7851562 -1.8315506 -6.6780396 -1.8315506z" fill-rule="evenodd"/></g></svg>