<?xml version="1.0" encoding="UTF-8" standalone="no"?>
<svg
   xmlns:dc="http://purl.org/dc/elements/1.1/"
   xmlns:cc="http://creativecommons.org/ns#"
   xmlns:rdf="http://www.w3.org/1999/02/22-rdf-syntax-ns#"
   xmlns:svg="http://www.w3.org/2000/svg"
   xmlns="http://www.w3.org/2000/svg"
   xmlns:sodipodi="http://sodipodi.sourceforge.net/DTD/sodipodi-0.dtd"
   xmlns:inkscape="http://www.inkscape.org/namespaces/inkscape"
   version="1.1"
   viewBox="0 0 200 79.337845"
   fill="none"
   stroke="none"
   stroke-linecap="square"
   stroke-miterlimit="10"
   id="svg55"
   sodipodi:docname="logo.svg"
   width="200"
   height="79.337845"
   inkscape:version="1.0.1 (0767f8302a, 2020-10-17)">
  <metadata
     id="metadata61">
    <rdf:RDF>
      <cc:Work
         rdf:about="">
        <dc:format>image/svg+xml</dc:format>
        <dc:type
           rdf:resource="http://purl.org/dc/dcmitype/StillImage" />
        <dc:title></dc:title>
      </cc:Work>
    </rdf:RDF>
  </metadata>
  <defs
     id="defs59" />
  <sodipodi:namedview
     pagecolor="#ffffff"
     bordercolor="#666666"
     borderopacity="1"
     objecttolerance="10"
     gridtolerance="10"
     guidetolerance="10"
     inkscape:pageopacity="0"
     inkscape:pageshadow="2"
     inkscape:window-width="1920"
     inkscape:window-height="1043"
     id="namedview57"
     showgrid="false"
     inkscape:zoom="3.3350573"
     inkscape:cx="128.92519"
     inkscape:cy="-19.77916"
     inkscape:window-x="1920"
     inkscape:window-y="0"
     inkscape:window-maximized="1"
     inkscape:current-layer="svg55" />
  <clipPath
     id="p.0">
    <path
       d="M 0,0 H 780.2441 V 309.51443 H 0 Z"
       clip-rule="nonzero"
       id="path2" />
  </clipPath>
  <g
     clip-path="url(#p.0)"
     id="g53"
     transform="scale(0.25633004)">
    <path
       fill="#000000"
       fill-opacity="0"
       d="M 0,0 H 780.2441 V 309.51443 H 0 Z"
       fill-rule="evenodd"
       id="path5" />
    <path
       fill="#d9d2e9"
       d="M -0.00131234,142.43832 112.9042,304.8504 302.24276,0 103.3504,177.17848 Z"
       fill-rule="evenodd"
       id="path7" />
    <path
       fill="#8e7cc3"
       d="m 119.77099,138.37196 c 5.06262,0 8.88772,3.00008 11.47527,9.00021 2.60633,5.9814 3.90947,14.39098 3.90947,25.22875 0,21.88177 -5.58763,32.82266 -16.7629,32.82266 -5.75639,0 -10.65026,-2.58755 -14.68161,-7.76268 v -47.36365 c 2.17506,-3.78759 4.66886,-6.72204 7.48143,-8.80334 2.83132,-2.0813 5.69077,-3.12195 8.57834,-3.12195 z m 3.45946,-12.60031 c -4.03135,0 -7.80957,1.0969 -11.33466,3.29071 -3.50633,2.17505 -6.5814,5.40013 -9.22522,9.67523 -0.1125,-0.80627 -0.34688,-2.21255 -0.70314,-4.21886 -0.33751,-2.02504 -0.82503,-3.78759 -1.46254,-5.28762 -0.637511,-1.50003 -1.762541,-2.25006 -3.375083,-2.25006 -1.837547,0 -3.965721,0.29063 -6.384529,0.8719 -2.418808,0.56251 -3.628212,1.53753 -3.628212,2.92508 0,0.33751 0.281258,2.21255 0.843773,5.62513 0.581261,3.39383 0.871895,8.83146 0.871895,16.3129 v 96.61173 c 0,2.53131 2.193802,3.79696 6.581406,3.79696 h 1.715667 c 4.387613,0 6.581413,-1.26565 6.581413,-3.79696 v -39.91036 c 2.53131,2.86882 5.20325,5.05325 8.01582,6.55329 2.83132,1.50004 6.2064,2.25006 10.12525,2.25006 8.75646,0 15.72225,-4.03136 20.89738,-12.09404 5.19387,-8.0627 7.79081,-19.29422 7.79081,-33.69458 0,-9.11272 -1.09689,-17.20354 -3.29071,-24.27246 -2.1938,-7.08768 -5.36262,-12.59095 -9.50647,-16.50978 -4.14386,-3.91884 -8.98147,-5.87827 -14.51285,-5.87827 z"
       fill-rule="evenodd"
       id="path9" />
    <path
       fill="#8e7cc3"
       d="m 167.28241,126.44667 c -4.48135,0 -6.72205,0.9844 -6.72205,2.9532 0,0.69376 0.22501,1.72504 0.67502,3.09383 l 24.38497,77.0925 -11.75653,37.82904 c -0.46877,1.50004 -0.70314,2.48443 -0.70314,2.9532 0,1.83754 1.84692,2.75632 5.54075,2.75632 h 3.62822 c 3.80634,0 6.11264,-1.20942 6.91892,-3.62822 L 223.11189,132.4937 c 0.45001,-1.4813 0.67502,-2.51258 0.67502,-3.09383 0,-1.9688 -2.18443,-2.9532 -6.55328,-2.9532 h -2.0813 c -3.80635,0 -5.93453,0.92815 -6.38454,2.78444 l -12.62843,46.82927 -3.09383,13.80971 h -1.04065 c -1.61253,-7.03142 -2.70944,-11.63466 -3.29071,-13.80971 l -12.76906,-46.82927 c -0.46876,-1.85629 -2.55006,-2.78444 -6.24389,-2.78444 z"
       fill-rule="evenodd"
       id="path11" />
    <path
       stroke="#ffffff"
       stroke-width="16"
       stroke-linejoin="round"
       stroke-linecap="butt"
       d="m 119.77099,138.37196 c 5.06262,0 8.88772,3.00008 11.47527,9.00021 2.60633,5.9814 3.90947,14.39098 3.90947,25.22875 0,21.88177 -5.58763,32.82266 -16.7629,32.82266 -5.75639,0 -10.65026,-2.58755 -14.68161,-7.76268 v -47.36365 c 2.17506,-3.78759 4.66886,-6.72204 7.48143,-8.80334 2.83132,-2.0813 5.69077,-3.12195 8.57834,-3.12195 z m 3.45946,-12.60031 c -4.03135,0 -7.80957,1.0969 -11.33466,3.29071 -3.50633,2.17505 -6.5814,5.40013 -9.22522,9.67523 -0.1125,-0.80627 -0.34688,-2.21255 -0.70314,-4.21886 -0.33751,-2.02504 -0.82503,-3.78759 -1.46254,-5.28762 -0.637511,-1.50003 -1.762541,-2.25006 -3.375083,-2.25006 -1.837547,0 -3.965721,0.29063 -6.384529,0.8719 -2.418808,0.56251 -3.628212,1.53753 -3.628212,2.92508 0,0.33751 0.281258,2.21255 0.843773,5.62513 0.581261,3.39383 0.871895,8.83146 0.871895,16.3129 v 96.61173 c 0,2.53131 2.193802,3.79696 6.581406,3.79696 h 1.715667 c 4.387613,0 6.581413,-1.26565 6.581413,-3.79696 v -39.91036 c 2.53131,2.86882 5.20325,5.05325 8.01582,6.55329 2.83132,1.50004 6.2064,2.25006 10.12525,2.25006 8.75646,0 15.72225,-4.03136 20.89738,-12.09404 5.19387,-8.0627 7.79081,-19.29422 7.79081,-33.69458 0,-9.11272 -1.09689,-17.20354 -3.29071,-24.27246 -2.1938,-7.08768 -5.36262,-12.59095 -9.50647,-16.50978 -4.14386,-3.91884 -8.98147,-5.87827 -14.51285,-5.87827 z"
       fill-rule="evenodd"
       id="path13" />
    <path
       stroke="#ffffff"
       stroke-width="16"
       stroke-linejoin="round"
       stroke-linecap="butt"
       d="m 167.28241,126.44667 c -4.48135,0 -6.72205,0.9844 -6.72205,2.9532 0,0.69376 0.22501,1.72504 0.67502,3.09383 l 24.38497,77.0925 -11.75653,37.82904 c -0.46877,1.50004 -0.70314,2.48443 -0.70314,2.9532 0,1.83754 1.84692,2.75632 5.54075,2.75632 h 3.62822 c 3.80634,0 6.11264,-1.20942 6.91892,-3.62822 L 223.11189,132.4937 c 0.45001,-1.4813 0.67502,-2.51258 0.67502,-3.09383 0,-1.9688 -2.18443,-2.9532 -6.55328,-2.9532 h -2.0813 c -3.80635,0 -5.93453,0.92815 -6.38454,2.78444 l -12.62843,46.82927 -3.09383,13.80971 h -1.04065 c -1.61253,-7.03142 -2.70944,-11.63466 -3.29071,-13.80971 l -12.76906,-46.82927 c -0.46876,-1.85629 -2.55006,-2.78444 -6.24389,-2.78444 z"
       fill-rule="evenodd"
       id="path15" />
    <path
       fill="#8e7cc3"
       d="m 119.77099,138.37196 c 5.06262,0 8.88772,3.00008 11.47527,9.00021 2.60633,5.9814 3.90947,14.39098 3.90947,25.22875 0,21.88177 -5.58763,32.82266 -16.7629,32.82266 -5.75639,0 -10.65026,-2.58755 -14.68161,-7.76268 v -47.36365 c 2.17506,-3.78759 4.66886,-6.72204 7.48143,-8.80334 2.83132,-2.0813 5.69077,-3.12195 8.57834,-3.12195 z m 3.45946,-12.60031 c -4.03135,0 -7.80957,1.0969 -11.33466,3.29071 -3.50633,2.17505 -6.5814,5.40013 -9.22522,9.67523 -0.1125,-0.80627 -0.34688,-2.21255 -0.70314,-4.21886 -0.33751,-2.02504 -0.82503,-3.78759 -1.46254,-5.28762 -0.637511,-1.50003 -1.762541,-2.25006 -3.375083,-2.25006 -1.837547,0 -3.965721,0.29063 -6.384529,0.8719 -2.418808,0.56251 -3.628212,1.53753 -3.628212,2.92508 0,0.33751 0.281258,2.21255 0.843773,5.62513 0.581261,3.39383 0.871895,8.83146 0.871895,16.3129 v 96.61173 c 0,2.53131 2.193802,3.79696 6.581406,3.79696 h 1.715667 c 4.387613,0 6.581413,-1.26565 6.581413,-3.79696 v -39.91036 c 2.53131,2.86882 5.20325,5.05325 8.01582,6.55329 2.83132,1.50004 6.2064,2.25006 10.12525,2.25006 8.75646,0 15.72225,-4.03136 20.89738,-12.09404 5.19387,-8.0627 7.79081,-19.29422 7.79081,-33.69458 0,-9.11272 -1.09689,-17.20354 -3.29071,-24.27246 -2.1938,-7.08768 -5.36262,-12.59095 -9.50647,-16.50978 -4.14386,-3.91884 -8.98147,-5.87827 -14.51285,-5.87827 z"
       fill-rule="evenodd"
       id="path17" />
    <path
       fill="#8e7cc3"
       d="m 167.28241,126.44667 c -4.48135,0 -6.72205,0.9844 -6.72205,2.9532 0,0.69376 0.22501,1.72504 0.67502,3.09383 l 24.38497,77.0925 -11.75653,37.82904 c -0.46877,1.50004 -0.70314,2.48443 -0.70314,2.9532 0,1.83754 1.84692,2.75632 5.54075,2.75632 h 3.62822 c 3.80634,0 6.11264,-1.20942 6.91892,-3.62822 L 223.11189,132.4937 c 0.45001,-1.4813 0.67502,-2.51258 0.67502,-3.09383 0,-1.9688 -2.18443,-2.9532 -6.55328,-2.9532 h -2.0813 c -3.80635,0 -5.93453,0.92815 -6.38454,2.78444 l -12.62843,46.82927 -3.09383,13.80971 h -1.04065 c -1.61253,-7.03142 -2.70944,-11.63466 -3.29071,-13.80971 l -12.76906,-46.82927 c -0.46876,-1.85629 -2.55006,-2.78444 -6.24389,-2.78444 z"
       fill-rule="evenodd"
       id="path19" />
    <path
       stroke="#000000"
       stroke-width="2"
       stroke-linejoin="round"
       stroke-linecap="butt"
       d="m 119.77099,138.37196 c 5.06262,0 8.88772,3.00008 11.47527,9.00021 2.60633,5.9814 3.90947,14.39098 3.90947,25.22875 0,21.88177 -5.58763,32.82266 -16.7629,32.82266 -5.75639,0 -10.65026,-2.58755 -14.68161,-7.76268 v -47.36365 c 2.17506,-3.78759 4.66886,-6.72204 7.48143,-8.80334 2.83132,-2.0813 5.69077,-3.12195 8.57834,-3.12195 z m 3.45946,-12.60031 c -4.03135,0 -7.80957,1.0969 -11.33466,3.29071 -3.50633,2.17505 -6.5814,5.40013 -9.22522,9.67523 -0.1125,-0.80627 -0.34688,-2.21255 -0.70314,-4.21886 -0.33751,-2.02504 -0.82503,-3.78759 -1.46254,-5.28762 -0.637511,-1.50003 -1.762541,-2.25006 -3.375083,-2.25006 -1.837547,0 -3.965721,0.29063 -6.384529,0.8719 -2.418808,0.56251 -3.628212,1.53753 -3.628212,2.92508 0,0.33751 0.281258,2.21255 0.843773,5.62513 0.581261,3.39383 0.871895,8.83146 0.871895,16.3129 v 96.61173 c 0,2.53131 2.193802,3.79696 6.581406,3.79696 h 1.715667 c 4.387613,0 6.581413,-1.26565 6.581413,-3.79696 v -39.91036 c 2.53131,2.86882 5.20325,5.05325 8.01582,6.55329 2.83132,1.50004 6.2064,2.25006 10.12525,2.25006 8.75646,0 15.72225,-4.03136 20.89738,-12.09404 5.19387,-8.0627 7.79081,-19.29422 7.79081,-33.69458 0,-9.11272 -1.09689,-17.20354 -3.29071,-24.27246 -2.1938,-7.08768 -5.36262,-12.59095 -9.50647,-16.50978 -4.14386,-3.91884 -8.98147,-5.87827 -14.51285,-5.87827 z"
       fill-rule="evenodd"
       id="path21" />
    <path
       stroke="#000000"
       stroke-width="2"
       stroke-linejoin="round"
       stroke-linecap="butt"
       d="m 167.28241,126.44667 c -4.48135,0 -6.72205,0.9844 -6.72205,2.9532 0,0.69376 0.22501,1.72504 0.67502,3.09383 l 24.38497,77.0925 -11.75653,37.82904 c -0.46877,1.50004 -0.70314,2.48443 -0.70314,2.9532 0,1.83754 1.84692,2.75632 5.54075,2.75632 h 3.62822 c 3.80634,0 6.11264,-1.20942 6.91892,-3.62822 L 223.11189,132.4937 c 0.45001,-1.4813 0.67502,-2.51258 0.67502,-3.09383 0,-1.9688 -2.18443,-2.9532 -6.55328,-2.9532 h -2.0813 c -3.80635,0 -5.93453,0.92815 -6.38454,2.78444 l -12.62843,46.82927 -3.09383,13.80971 h -1.04065 c -1.61253,-7.03142 -2.70944,-11.63466 -3.29071,-13.80971 l -12.76906,-46.82927 c -0.46876,-1.85629 -2.55006,-2.78444 -6.24389,-2.78444 z"
       fill-rule="evenodd"
       id="path23" />
    <path
       fill="#f3f3f3"
       d="m 277.86154,124.8593 c -4.37692,0 -8.44388,1.18346 -12.2009,3.5504 -3.73822,2.36693 -6.7626,5.51346 -9.07318,9.43956 -0.1127,-0.93925 -0.3475,-2.38571 -0.70444,-4.33937 -0.33813,-1.95366 -0.82653,-3.6819 -1.46524,-5.18472 -0.6387,-1.50282 -1.76579,-2.25423 -3.3813,-2.25423 -1.72822,0 -3.83215,0.31935 -6.31178,0.95805 -2.47963,0.61991 -3.71944,1.62493 -3.71944,3.01502 0,0.35692 0.28177,2.20727 0.84532,5.55102 0.58236,3.34378 0.87351,8.76331 0.87351,16.25859 v 61.11766 c 0,2.536 2.14149,3.804 6.42448,3.804 h 1.88791 c 4.39571,0 6.59355,-1.268 6.59355,-3.804 v -63.37187 c 0.67627,-2.53601 2.46085,-5.18472 5.35373,-7.94615 2.89292,-2.78021 6.23667,-4.1703 10.03122,-4.1703 4.03882,0 7.03504,1.44645 8.98868,4.33937 1.97241,2.89293 2.95865,7.04445 2.95865,12.45459 v 58.69436 c 0,2.536 2.19784,3.804 6.59354,3.804 h 1.8879 c 4.28299,0 6.42447,-1.268 6.42447,-3.804 v -60.07507 -2.76143 c 1.14591,-3.23105 3.12772,-6.14276 5.9455,-8.73512 2.83652,-2.61115 6.04877,-3.9167 9.63672,-3.9167 3.92608,0 6.86597,1.44645 8.81958,4.33937 1.97244,2.89293 2.95865,7.04445 2.95865,12.45459 v 58.69436 c 0,2.536 2.18847,3.804 6.5654,3.804 h 1.71881 c 4.39572,0 6.59356,-1.268 6.59356,-3.804 v -60.07507 c 0,-9.35503 -2.07574,-16.36191 -6.22723,-21.02065 -4.15152,-4.67751 -9.40195,-7.01626 -15.75128,-7.01626 -4.39572,0 -8.55658,1.21164 -12.48267,3.63493 -3.92608,2.4233 -7.26983,5.65434 -10.03122,9.69316 -1.72824,-4.62115 -4.35815,-7.9931 -7.88974,-10.11583 -3.51278,-2.14151 -7.46707,-3.21226 -11.86276,-3.21226 z"
       fill-rule="evenodd"
       id="path25" />
    <path
       fill="#f3f3f3"
       d="m 395.6066,137.31389 c 10.27542,0 15.41315,9.12021 15.41315,27.36064 h -33.41861 c 0.92044,-18.24043 6.92227,-27.36064 18.00546,-27.36064 z m 0.5072,-12.45459 c -11.19589,0 -19.67737,3.98245 -25.44436,11.94739 -5.767,7.96492 -8.65052,19.62114 -8.65052,34.96864 0,15.46022 2.96805,26.94737 8.90412,34.46146 5.95486,7.4953 15.04684,11.24295 27.27591,11.24295 4.62112,0 8.95108,-0.60114 12.98987,-1.80339 4.03878,-1.22104 7.24163,-2.72387 9.60855,-4.50844 2.36691,-1.80339 3.55038,-3.39073 3.55038,-4.76206 0,-1.16468 -0.72324,-2.90231 -2.16968,-5.21289 -1.44644,-2.31057 -2.74261,-3.46586 -3.88852,-3.46586 -0.3569,0 -1.39947,0.63868 -3.12768,1.91609 -1.72824,1.27739 -3.98245,2.48904 -6.76264,3.63493 -2.76141,1.14589 -6.21786,1.71884 -10.36935,1.71884 -6.81897,0 -11.78763,-2.18847 -14.90595,-6.56543 -3.11831,-4.37695 -4.95925,-11.47776 -5.52279,-21.30241 h 43.11169 c 1.03317,0 2.23545,-0.92047 3.60675,-2.76143 1.39008,-1.84096 2.08512,-3.28741 2.08512,-4.33938 0,-14.76517 -2.53598,-25.97992 -7.60794,-33.64429 -5.07196,-7.68315 -12.63294,-11.52472 -22.68296,-11.52472 z"
       fill-rule="evenodd"
       id="path27" />
    <path
       fill="#f3f3f3"
       d="m 455.83267,103.89501 c -3.45645,0 -5.29739,1.2774 -5.5228,3.83218 l -2.08514,18.17468 h -5.72006 c -1.14588,0 -2.01001,0.40388 -2.59232,1.21165 -0.58237,0.80777 -0.8735,2.13211 -0.8735,3.97307 v 2.08516 c 0,1.84094 0.29113,3.1653 0.8735,3.97307 0.58234,0.80775 1.44644,1.21164 2.59232,1.21164 h 5.72006 v 58.15898 c 0,7.85222 1.96304,13.30931 5.8891,16.37131 3.92608,3.06198 8.42511,4.59298 13.49707,4.59298 2.89291,0 5.52283,-0.37571 7.88974,-1.12712 2.36691,-0.7514 3.55035,-2.04757 3.55035,-3.88853 0,-1.39011 -0.3475,-3.11835 -1.04254,-5.18471 -0.69507,-2.08516 -1.55917,-3.12775 -2.59235,-3.12775 -0.35693,0 -1.05197,0.1409 -2.08514,0.42267 -1.03317,0.28179 -2.30118,0.42267 -3.80398,0.42267 -2.19785,0 -3.87912,-0.7702 -5.0438,-2.31058 -1.14587,-1.55917 -1.71881,-4.42392 -1.71881,-8.59424 v -55.73568 h 11.4401 c 1.2586,0 2.15087,-0.40389 2.67688,-1.21164 0.52597,-0.80777 0.78897,-2.13213 0.78897,-3.97307 v -2.08516 c 0,-1.84096 -0.263,-3.16531 -0.78897,-3.97307 -0.52601,-0.80777 -1.41828,-1.21165 -2.67688,-1.21165 h -11.4401 v -18.17468 c 0,-2.55478 -1.72824,-3.83218 -5.18469,-3.83218 z"
       fill-rule="evenodd"
       id="path29" />
    <path
       fill="#f3f3f3"
       d="m 539.46124,171.60626 v 22.31682 c -4.73383,6.57483 -10.84839,9.86224 -18.34363,9.86224 -8.65991,0 -12.98984,-4.4427 -12.98984,-13.32811 0,-5.41014 1.50281,-9.46774 4.5084,-12.1728 3.00561,-2.72385 6.61236,-4.48966 10.82019,-5.29743 4.20788,-0.80777 9.54284,-1.268 16.00488,-1.38072 z M 524.58349,124.8593 c -4.73382,0 -9.32678,0.51658 -13.77884,1.54977 -4.43328,1.03319 -8.01184,2.35754 -10.73565,3.97307 -2.70505,1.61552 -4.05759,3.1747 -4.05759,4.67752 0,1.16467 0.72324,2.87413 2.16968,5.12836 1.44644,2.23544 2.74261,3.35316 3.88849,3.35316 0.33813,0 1.60614,-0.54477 3.80398,-1.63432 2.19785,-1.08954 4.82776,-2.12273 7.88974,-3.09955 3.06195,-0.99562 6.61231,-1.49342 10.65113,-1.49342 5.18469,0 8.98864,1.27739 11.41192,3.83216 2.42328,2.53602 3.63489,5.75768 3.63489,9.665 v 8.14338 c -8.65991,0.11272 -16.33362,0.94866 -23.02106,2.50783 -6.6875,1.55916 -12.28546,4.64934 -16.79385,9.2705 -4.50842,4.62115 -6.76264,11.26171 -6.76264,19.9217 0,8.52848 2.28238,15.13149 6.84717,19.80899 4.56476,4.67752 10.70746,7.01628 18.42813,7.01628 8.88532,0 16.38996,-3.6913 22.51392,-11.07388 0.69501,3.23105 1.44641,5.73888 2.25421,7.52347 0.80774,1.78461 2.07574,2.67689 3.80396,2.67689 1.84094,0 3.86035,-0.30995 6.05816,-0.92987 2.19788,-0.63868 3.29682,-1.65309 3.29682,-3.04319 0,-0.35692 -0.34754,-2.17908 -1.04261,-5.4665 -0.69507,-3.28741 -1.04254,-8.73512 -1.04254,-16.34312 V 151.0083 c 0,-8.20914 -2.60174,-14.61488 -7.80524,-19.21727 -5.18463,-4.62116 -12.38873,-6.93173 -21.61218,-6.93173 z"
       fill-rule="evenodd"
       id="path31" />
    <path
       fill="#f3f3f3"
       d="m 606.64404,136.44037 c 4.73383,0 8.45325,1.33376 11.15832,4.00125 2.70502,2.64871 4.05756,7.43894 4.05756,14.37068 0,6.3494 -1.39007,10.73574 -4.17029,13.15903 -2.76141,2.42329 -6.4433,3.63493 -11.04559,3.63493 -4.73383,0 -8.43451,-1.21164 -11.10199,-3.63493 -2.64868,-2.42329 -3.97302,-6.80963 -3.97302,-13.15903 0,-6.93174 1.32434,-11.72197 3.97302,-14.37068 2.66748,-2.66749 6.36816,-4.00125 11.10199,-4.00125 z m -10.39752,77.40442 c 2.53595,0.80777 6.00183,1.43707 10.39752,1.88792 4.37689,0.58234 7.83337,1.24921 10.36932,2.00063 2.53601,0.7514 4.69629,2.01939 6.48084,3.804 1.8034,1.78459 2.70508,4.30182 2.70508,7.55165 0,8.30306 -6.51844,12.45459 -19.55524,12.45459 -12.3606,0 -18.54089,-4.32998 -18.54089,-12.98997 0,-3.34377 0.7514,-6.28365 2.25421,-8.81966 1.50281,-2.53599 3.46588,-4.49904 5.88916,-5.88916 z m 10.56659,-88.98549 c -9.24225,0 -16.34302,2.71445 -21.30225,8.14339 -4.95929,5.41012 -7.4389,12.62365 -7.4389,21.64055 0,12.45459 4.32995,20.81399 12.98987,25.07824 -5.4289,3.8134 -8.14332,9.12961 -8.14332,15.94863 0,2.64871 0.48841,5.072 1.46521,7.26988 0.97681,2.19786 2.33875,3.98247 4.08576,5.35377 v 0.36632 c -4.28302,2.17909 -7.66431,5.20351 -10.14392,9.07326 -2.47962,3.86975 -3.71942,8.2279 -3.71942,13.07449 0,14.89665 10.27539,22.345 30.82623,22.345 11.30859,0 19.84644,-2.19787 25.61346,-6.59361 5.76697,-4.37695 8.65052,-10.72636 8.65052,-19.04819 0,-6.80024 -2.13214,-12.01315 -6.39631,-15.63868 -4.26422,-3.64434 -10.04064,-5.9925 -17.32922,-7.04445 l -3.63495,-0.50721 c -5.76697,-0.80775 -9.97485,-1.81275 -12.62353,-3.01501 -2.64868,-1.22105 -3.97303,-3.55981 -3.97303,-7.01628 0,-6.70631 4.15149,-10.22855 12.45447,-10.56668 8.54718,-0.3569 15.17835,-3.21227 19.89337,-8.56604 4.73383,-5.37258 7.10077,-12.27612 7.10077,-20.71069 0,-6.1052 -1.54974,-11.63744 -4.64929,-16.59673 l 0.33814,-0.3663 c 1.72821,0.2442 5.07196,0.3663 10.03119,0.3663 1.2774,0 2.16967,-0.3757 2.67688,-1.12711 0.526,-0.75141 0.789,-1.99124 0.789,-3.71946 v -2.08516 c 0,-3.34377 -1.15528,-5.01566 -3.46588,-5.01566 h -25.95154 c -2.55475,-0.69505 -5.26923,-1.04257 -8.14331,-1.04257 z"
       fill-rule="evenodd"
       id="path33" />
    <path
       fill="#f3f3f3"
       d="m 687.14575,137.31389 c 10.27545,0 15.41315,9.12021 15.41315,27.36064 h -33.41858 c 0.92041,-18.24043 6.92224,-27.36064 18.00543,-27.36064 z m 0.5072,-12.45459 c -11.19586,0 -19.6773,3.98245 -25.44433,11.94739 -5.76703,7.96492 -8.65052,19.62114 -8.65052,34.96864 0,15.46022 2.96802,26.94737 8.90412,34.46146 5.95483,7.4953 15.04681,11.24295 27.27588,11.24295 4.62115,0 8.95111,-0.60114 12.98986,-1.80339 4.03882,-1.22104 7.24164,-2.72387 9.60859,-4.50844 2.36688,-1.80339 3.55035,-3.39073 3.55035,-4.76206 0,-1.16468 -0.72321,-2.90231 -2.16968,-5.21289 -1.44641,-2.31057 -2.74261,-3.46586 -3.88849,-3.46586 -0.35693,0 -1.39947,0.63868 -3.12768,1.91609 -1.72827,1.27739 -3.98248,2.48904 -6.76264,3.63493 -2.76141,1.14589 -6.21789,1.71884 -10.36938,1.71884 -6.81897,0 -11.7876,-2.18847 -14.90595,-6.56543 -3.11828,-4.37695 -4.95922,-11.47776 -5.52276,-21.30241 h 43.11169 c 1.03314,0 2.23541,-0.92047 3.60675,-2.76143 1.39008,-1.84096 2.08509,-3.28741 2.08509,-4.33938 0,-14.76517 -2.53595,-25.97992 -7.60791,-33.64429 -5.07197,-7.68315 -12.633,-11.52472 -22.68299,-11.52472 z"
       fill-rule="evenodd"
       id="path35" />
    <path
       fill="#f3f3f3"
       d="m 769.88574,124.8593 c -6.57477,0 -12.633,4.32999 -18.17456,12.98996 -0.11273,-0.58234 -0.37573,-1.82216 -0.789,-3.71947 -0.39447,-1.91609 -0.96741,-3.73825 -1.71881,-5.46649 -0.75141,-1.72824 -1.93488,-2.59236 -3.55036,-2.59236 -1.84094,0 -3.86035,0.31935 -6.05822,0.95805 -2.19782,0.61991 -3.29676,1.62493 -3.29676,3.01502 0,0.35692 0.34754,2.17909 1.04254,5.46649 0.69507,3.28741 1.04261,8.73512 1.04261,16.34312 v 61.11766 c 0,2.536 2.31054,3.804 6.9317,3.804 h 0.67621 c 4.62115,0 6.9317,-1.268 6.9317,-3.804 v -63.37187 c 0.92047,-2.06637 2.73321,-4.33938 5.43829,-6.81903 2.72382,-2.47964 5.58856,-3.71947 8.59418,-3.71947 2.06634,0 3.85089,0.31934 5.3537,0.95804 1.50281,0.61992 2.54541,0.92987 3.12774,0.92987 0.92048,0 1.72822,-1.06137 2.42328,-3.1841 0.69507,-2.14151 1.04255,-4.19848 1.04255,-6.17092 0,-2.06638 -0.77961,-3.7007 -2.33875,-4.90295 -1.55914,-1.22103 -3.78516,-1.83155 -6.67804,-1.83155 z"
       fill-rule="evenodd"
       id="path37" />
    <path
       stroke="#000000"
       stroke-width="2"
       stroke-linejoin="round"
       stroke-linecap="butt"
       d="m 277.86154,124.8593 c -4.37692,0 -8.44388,1.18346 -12.2009,3.5504 -3.73822,2.36693 -6.7626,5.51346 -9.07318,9.43956 -0.1127,-0.93925 -0.3475,-2.38571 -0.70444,-4.33937 -0.33813,-1.95366 -0.82653,-3.6819 -1.46524,-5.18472 -0.6387,-1.50282 -1.76579,-2.25423 -3.3813,-2.25423 -1.72822,0 -3.83215,0.31935 -6.31178,0.95805 -2.47963,0.61991 -3.71944,1.62493 -3.71944,3.01502 0,0.35692 0.28177,2.20727 0.84532,5.55102 0.58236,3.34378 0.87351,8.76331 0.87351,16.25859 v 61.11766 c 0,2.536 2.14149,3.804 6.42448,3.804 h 1.88791 c 4.39571,0 6.59355,-1.268 6.59355,-3.804 v -63.37187 c 0.67627,-2.53601 2.46085,-5.18472 5.35373,-7.94615 2.89292,-2.78021 6.23667,-4.1703 10.03122,-4.1703 4.03882,0 7.03504,1.44645 8.98868,4.33937 1.97241,2.89293 2.95865,7.04445 2.95865,12.45459 v 58.69436 c 0,2.536 2.19784,3.804 6.59354,3.804 h 1.8879 c 4.28299,0 6.42447,-1.268 6.42447,-3.804 v -60.07507 -2.76143 c 1.14591,-3.23105 3.12772,-6.14276 5.9455,-8.73512 2.83652,-2.61115 6.04877,-3.9167 9.63672,-3.9167 3.92608,0 6.86597,1.44645 8.81958,4.33937 1.97244,2.89293 2.95865,7.04445 2.95865,12.45459 v 58.69436 c 0,2.536 2.18847,3.804 6.5654,3.804 h 1.71881 c 4.39572,0 6.59356,-1.268 6.59356,-3.804 v -60.07507 c 0,-9.35503 -2.07574,-16.36191 -6.22723,-21.02065 -4.15152,-4.67751 -9.40195,-7.01626 -15.75128,-7.01626 -4.39572,0 -8.55658,1.21164 -12.48267,3.63493 -3.92608,2.4233 -7.26983,5.65434 -10.03122,9.69316 -1.72824,-4.62115 -4.35815,-7.9931 -7.88974,-10.11583 -3.51278,-2.14151 -7.46707,-3.21226 -11.86276,-3.21226 z"
       fill-rule="evenodd"
       id="path39" />
    <path
       stroke="#000000"
       stroke-width="2"
       stroke-linejoin="round"
       stroke-linecap="butt"
       d="m 395.6066,137.31389 c 10.27542,0 15.41315,9.12021 15.41315,27.36064 h -33.41861 c 0.92044,-18.24043 6.92227,-27.36064 18.00546,-27.36064 z m 0.5072,-12.45459 c -11.19589,0 -19.67737,3.98245 -25.44436,11.94739 -5.767,7.96492 -8.65052,19.62114 -8.65052,34.96864 0,15.46022 2.96805,26.94737 8.90412,34.46146 5.95486,7.4953 15.04684,11.24295 27.27591,11.24295 4.62112,0 8.95108,-0.60114 12.98987,-1.80339 4.03878,-1.22104 7.24163,-2.72387 9.60855,-4.50844 2.36691,-1.80339 3.55038,-3.39073 3.55038,-4.76206 0,-1.16468 -0.72324,-2.90231 -2.16968,-5.21289 -1.44644,-2.31057 -2.74261,-3.46586 -3.88852,-3.46586 -0.3569,0 -1.39947,0.63868 -3.12768,1.91609 -1.72824,1.27739 -3.98245,2.48904 -6.76264,3.63493 -2.76141,1.14589 -6.21786,1.71884 -10.36935,1.71884 -6.81897,0 -11.78763,-2.18847 -14.90595,-6.56543 -3.11831,-4.37695 -4.95925,-11.47776 -5.52279,-21.30241 h 43.11169 c 1.03317,0 2.23545,-0.92047 3.60675,-2.76143 1.39008,-1.84096 2.08512,-3.28741 2.08512,-4.33938 0,-14.76517 -2.53598,-25.97992 -7.60794,-33.64429 -5.07196,-7.68315 -12.63294,-11.52472 -22.68296,-11.52472 z"
       fill-rule="evenodd"
       id="path41" />
    <path
       stroke="#000000"
       stroke-width="2"
       stroke-linejoin="round"
       stroke-linecap="butt"
       d="m 455.83267,103.89501 c -3.45645,0 -5.29739,1.2774 -5.5228,3.83218 l -2.08514,18.17468 h -5.72006 c -1.14588,0 -2.01001,0.40388 -2.59232,1.21165 -0.58237,0.80777 -0.8735,2.13211 -0.8735,3.97307 v 2.08516 c 0,1.84094 0.29113,3.1653 0.8735,3.97307 0.58234,0.80775 1.44644,1.21164 2.59232,1.21164 h 5.72006 v 58.15898 c 0,7.85222 1.96304,13.30931 5.8891,16.37131 3.92608,3.06198 8.42511,4.59298 13.49707,4.59298 2.89291,0 5.52283,-0.37571 7.88974,-1.12712 2.36691,-0.7514 3.55035,-2.04757 3.55035,-3.88853 0,-1.39011 -0.3475,-3.11835 -1.04254,-5.18471 -0.69507,-2.08516 -1.55917,-3.12775 -2.59235,-3.12775 -0.35693,0 -1.05197,0.1409 -2.08514,0.42267 -1.03317,0.28179 -2.30118,0.42267 -3.80398,0.42267 -2.19785,0 -3.87912,-0.7702 -5.0438,-2.31058 -1.14587,-1.55917 -1.71881,-4.42392 -1.71881,-8.59424 v -55.73568 h 11.4401 c 1.2586,0 2.15087,-0.40389 2.67688,-1.21164 0.52597,-0.80777 0.78897,-2.13213 0.78897,-3.97307 v -2.08516 c 0,-1.84096 -0.263,-3.16531 -0.78897,-3.97307 -0.52601,-0.80777 -1.41828,-1.21165 -2.67688,-1.21165 h -11.4401 v -18.17468 c 0,-2.55478 -1.72824,-3.83218 -5.18469,-3.83218 z"
       fill-rule="evenodd"
       id="path43" />
    <path
       stroke="#000000"
       stroke-width="2"
       stroke-linejoin="round"
       stroke-linecap="butt"
       d="m 539.46124,171.60626 v 22.31682 c -4.73383,6.57483 -10.84839,9.86224 -18.34363,9.86224 -8.65991,0 -12.98984,-4.4427 -12.98984,-13.32811 0,-5.41014 1.50281,-9.46774 4.5084,-12.1728 3.00561,-2.72385 6.61236,-4.48966 10.82019,-5.29743 4.20788,-0.80777 9.54284,-1.268 16.00488,-1.38072 z M 524.58349,124.8593 c -4.73382,0 -9.32678,0.51658 -13.77884,1.54977 -4.43328,1.03319 -8.01184,2.35754 -10.73565,3.97307 -2.70505,1.61552 -4.05759,3.1747 -4.05759,4.67752 0,1.16467 0.72324,2.87413 2.16968,5.12836 1.44644,2.23544 2.74261,3.35316 3.88849,3.35316 0.33813,0 1.60614,-0.54477 3.80398,-1.63432 2.19785,-1.08954 4.82776,-2.12273 7.88974,-3.09955 3.06195,-0.99562 6.61231,-1.49342 10.65113,-1.49342 5.18469,0 8.98864,1.27739 11.41192,3.83216 2.42328,2.53602 3.63489,5.75768 3.63489,9.665 v 8.14338 c -8.65991,0.11272 -16.33362,0.94866 -23.02106,2.50783 -6.6875,1.55916 -12.28546,4.64934 -16.79385,9.2705 -4.50842,4.62115 -6.76264,11.26171 -6.76264,19.9217 0,8.52848 2.28238,15.13149 6.84717,19.80899 4.56476,4.67752 10.70746,7.01628 18.42813,7.01628 8.88532,0 16.38996,-3.6913 22.51392,-11.07388 0.69501,3.23105 1.44641,5.73888 2.25421,7.52347 0.80774,1.78461 2.07574,2.67689 3.80396,2.67689 1.84094,0 3.86035,-0.30995 6.05816,-0.92987 2.19788,-0.63868 3.29682,-1.65309 3.29682,-3.04319 0,-0.35692 -0.34754,-2.17908 -1.04261,-5.4665 -0.69507,-3.28741 -1.04254,-8.73512 -1.04254,-16.34312 V 151.0083 c 0,-8.20914 -2.60174,-14.61488 -7.80524,-19.21727 -5.18463,-4.62116 -12.38873,-6.93173 -21.61218,-6.93173 z"
       fill-rule="evenodd"
       id="path45" />
    <path
       stroke="#000000"
       stroke-width="2"
       stroke-linejoin="round"
       stroke-linecap="butt"
       d="m 606.64404,136.44037 c 4.73383,0 8.45325,1.33376 11.15832,4.00125 2.70502,2.64871 4.05756,7.43894 4.05756,14.37068 0,6.3494 -1.39007,10.73574 -4.17029,13.15903 -2.76141,2.42329 -6.4433,3.63493 -11.04559,3.63493 -4.73383,0 -8.43451,-1.21164 -11.10199,-3.63493 -2.64868,-2.42329 -3.97302,-6.80963 -3.97302,-13.15903 0,-6.93174 1.32434,-11.72197 3.97302,-14.37068 2.66748,-2.66749 6.36816,-4.00125 11.10199,-4.00125 z m -10.39752,77.40442 c 2.53595,0.80777 6.00183,1.43707 10.39752,1.88792 4.37689,0.58234 7.83337,1.24921 10.36932,2.00063 2.53601,0.7514 4.69629,2.01939 6.48084,3.804 1.8034,1.78459 2.70508,4.30182 2.70508,7.55165 0,8.30306 -6.51844,12.45459 -19.55524,12.45459 -12.3606,0 -18.54089,-4.32998 -18.54089,-12.98997 0,-3.34377 0.7514,-6.28365 2.25421,-8.81966 1.50281,-2.53599 3.46588,-4.49904 5.88916,-5.88916 z m 10.56659,-88.98549 c -9.24225,0 -16.34302,2.71445 -21.30225,8.14339 -4.95929,5.41012 -7.4389,12.62365 -7.4389,21.64055 0,12.45459 4.32995,20.81399 12.98987,25.07824 -5.4289,3.8134 -8.14332,9.12961 -8.14332,15.94863 0,2.64871 0.48841,5.072 1.46521,7.26988 0.97681,2.19786 2.33875,3.98247 4.08576,5.35377 v 0.36632 c -4.28302,2.17909 -7.66431,5.20351 -10.14392,9.07326 -2.47962,3.86975 -3.71942,8.2279 -3.71942,13.07449 0,14.89665 10.27539,22.345 30.82623,22.345 11.30859,0 19.84644,-2.19787 25.61346,-6.59361 5.76697,-4.37695 8.65052,-10.72636 8.65052,-19.04819 0,-6.80024 -2.13214,-12.01315 -6.39631,-15.63868 -4.26422,-3.64434 -10.04064,-5.9925 -17.32922,-7.04445 l -3.63495,-0.50721 c -5.76697,-0.80775 -9.97485,-1.81275 -12.62353,-3.01501 -2.64868,-1.22105 -3.97303,-3.55981 -3.97303,-7.01628 0,-6.70631 4.15149,-10.22855 12.45447,-10.56668 8.54718,-0.3569 15.17835,-3.21227 19.89337,-8.56604 4.73383,-5.37258 7.10077,-12.27612 7.10077,-20.71069 0,-6.1052 -1.54974,-11.63744 -4.64929,-16.59673 l 0.33814,-0.3663 c 1.72821,0.2442 5.07196,0.3663 10.03119,0.3663 1.2774,0 2.16967,-0.3757 2.67688,-1.12711 0.526,-0.75141 0.789,-1.99124 0.789,-3.71946 v -2.08516 c 0,-3.34377 -1.15528,-5.01566 -3.46588,-5.01566 h -25.95154 c -2.55475,-0.69505 -5.26923,-1.04257 -8.14331,-1.04257 z"
       fill-rule="evenodd"
       id="path47" />
    <path
       stroke="#000000"
       stroke-width="2"
       stroke-linejoin="round"
       stroke-linecap="butt"
       d="m 687.14575,137.31389 c 10.27545,0 15.41315,9.12021 15.41315,27.36064 h -33.41858 c 0.92041,-18.24043 6.92224,-27.36064 18.00543,-27.36064 z m 0.5072,-12.45459 c -11.19586,0 -19.6773,3.98245 -25.44433,11.94739 -5.76703,7.96492 -8.65052,19.62114 -8.65052,34.96864 0,15.46022 2.96802,26.94737 8.90412,34.46146 5.95483,7.4953 15.04681,11.24295 27.27588,11.24295 4.62115,0 8.95111,-0.60114 12.98986,-1.80339 4.03882,-1.22104 7.24164,-2.72387 9.60859,-4.50844 2.36688,-1.80339 3.55035,-3.39073 3.55035,-4.76206 0,-1.16468 -0.72321,-2.90231 -2.16968,-5.21289 -1.44641,-2.31057 -2.74261,-3.46586 -3.88849,-3.46586 -0.35693,0 -1.39947,0.63868 -3.12768,1.91609 -1.72827,1.27739 -3.98248,2.48904 -6.76264,3.63493 -2.76141,1.14589 -6.21789,1.71884 -10.36938,1.71884 -6.81897,0 -11.7876,-2.18847 -14.90595,-6.56543 -3.11828,-4.37695 -4.95922,-11.47776 -5.52276,-21.30241 h 43.11169 c 1.03314,0 2.23541,-0.92047 3.60675,-2.76143 1.39008,-1.84096 2.08509,-3.28741 2.08509,-4.33938 0,-14.76517 -2.53595,-25.97992 -7.60791,-33.64429 -5.07197,-7.68315 -12.633,-11.52472 -22.68299,-11.52472 z"
       fill-rule="evenodd"
       id="path49" />
    <path
       stroke="#000000"
       stroke-width="2"
       stroke-linejoin="round"
       stroke-linecap="butt"
       d="m 769.88574,124.8593 c -6.57477,0 -12.633,4.32999 -18.17456,12.98996 -0.11273,-0.58234 -0.37573,-1.82216 -0.789,-3.71947 -0.39447,-1.91609 -0.96741,-3.73825 -1.71881,-5.46649 -0.75141,-1.72824 -1.93488,-2.59236 -3.55036,-2.59236 -1.84094,0 -3.86035,0.31935 -6.05822,0.95805 -2.19782,0.61991 -3.29676,1.62493 -3.29676,3.01502 0,0.35692 0.34754,2.17909 1.04254,5.46649 0.69507,3.28741 1.04261,8.73512 1.04261,16.34312 v 61.11766 c 0,2.536 2.31054,3.804 6.9317,3.804 h 0.67621 c 4.62115,0 6.9317,-1.268 6.9317,-3.804 v -63.37187 c 0.92047,-2.06637 2.73321,-4.33938 5.43829,-6.81903 2.72382,-2.47964 5.58856,-3.71947 8.59418,-3.71947 2.06634,0 3.85089,0.31934 5.3537,0.95804 1.50281,0.61992 2.54541,0.92987 3.12774,0.92987 0.92048,0 1.72822,-1.06137 2.42328,-3.1841 0.69507,-2.14151 1.04255,-4.19848 1.04255,-6.17092 0,-2.06638 -0.77961,-3.7007 -2.33875,-4.90295 -1.55914,-1.22103 -3.78516,-1.83155 -6.67804,-1.83155 z"
       fill-rule="evenodd"
       id="path51" />
  </g>
</svg>
